<?xml version="1.0" encoding="utf-8"?>
<!-- Generator: Adobe Illustrator 21.0.0, SVG Export Plug-In . SVG Version: 6.00 Build 0)  -->
<svg version="1.1" id="Layer_1" xmlns="http://www.w3.org/2000/svg" xmlns:xlink="http://www.w3.org/1999/xlink" x="0px" y="0px"
	 viewBox="0 0 78.4 77.7" style="enable-background:new 0 0 78.4 77.7;" xml:space="preserve">
<style type="text/css">
	.st0{fill:#EA4647;}
	.st1{fill:#333333;}
</style>
<title>M Media Logo</title>
<g id="b39de389-a7b8-4fea-bf2a-08118139ae3d">
	<g id="e5627d46-71ce-4e60-8295-4311cfc92d3f">
		<g>
			<g>
				<path class="st0" d="M14.1,1.1l1.1,48.5l14.9-0.3l0,0L29.5,23L29,1.1c-0.5-0.3-1.1-0.4-1.6-0.3L14.1,1.1z"/>
				<path class="st0" d="M60,48.5c1.1,0,2.2-0.5,3-1.3l0,0c0.8-0.8,1.2-2,1.2-3.1L63.3,4.2c0-1.1-0.5-2.2-1.3-3l0,0
					C61.1,0.4,60,0,58.8,0l-9,0.2c-1.3,0-2.5,0.8-3,2.1l-5.8,11.1c-0.5,0.8-0.7,1.2-1.2,1.2h-0.6c-0.5,0-0.8-0.3-1.2-1.1L31.7,2.7
					C31.4,2,30.9,1.4,30.2,1l0.5,22l4.1,7.2c0.6,1.4,2.1,2.2,3.6,2.1l2.7-0.1c1.5,0.1,3-0.8,3.5-2.2l3.8-7.4l0.6,26.1"/>
				<polygon class="st0" points="64.3,48.3 64.3,48.3 64.3,48.3 				"/>
			</g>
			<g>
				<path class="st1" d="M11.6,76.8c0,0.1,0,0.1,0,0.2H8.4c0-0.3,0-0.5,0-0.7c0-0.2,0-0.4-0.2-0.5c0,0.1-0.1,0.3-0.1,0.4v-0.6
					l0.1-0.1H8.2v-0.2c0.1,0,0.2-0.1,0.2-0.1l0.3,0.1c0-0.6,0.1-1.2,0.5-1.7c0.3-0.5,0.5-0.8,0.7-1.1C9.5,72.8,9.2,73,9,73.3
					c-0.2,0.3-0.4,0.6-0.6,0.9H8.3H8.2l-0.1-4.5c0.1,0,0.3,0.1,0.4,0.2C8.7,69.9,8.8,70,9,70c0,0.2,0,0.4-0.1,0.5
					c-0.1,0.2-0.1,0.3,0.1,0.4c0.2-0.2,0.4-0.4,0.5-0.6c0.2-0.3,0.3-0.5,0.4-0.8c0.1-0.3,0.2-0.6,0.2-0.9c0-0.3,0-0.6-0.1-0.8
					c-0.1,0-0.2,0-0.2,0.1c-0.1,0.1-0.2,0.1-0.2,0.1c0-0.4-0.1-0.8-0.3-1.1c-0.1,0.2-0.1,0.5-0.1,0.7c0,0.2,0,0.5,0.1,0.8
					c0.1,0,0.2,0,0.3,0l0.2-0.1c0.1,0,0.1,0,0.2,0c0,0,0.1,0.1,0.1,0.2l-0.4,0.2l-0.4,0.2v-0.4c-0.3,0-0.4,0.1-0.5,0.2L9,68.8
					c0.1,0.1,0.2,0.2,0.3,0.3c0.1,0.1,0.1,0.2,0.1,0.4c0,0.1-0.1,0.3-0.3,0.3c0.1-0.1,0.1-0.2,0-0.3c-0.1-0.1-0.2-0.1-0.2-0.1
					c-0.1,0-0.2,0-0.4,0l-0.3,0.1v-0.7c0.2-0.1,0.4-0.1,0.6,0c0-0.1-0.1-0.2-0.2-0.3c-0.1-0.1-0.2-0.1-0.4-0.1v-0.2
					c0.1-0.1,0.2-0.2,0.2-0.4c0-0.2,0.1-0.3,0.2-0.4c-0.1,0-0.2,0-0.2,0H8.2v-0.4c0-0.3-0.1-0.6-0.2-0.9c-0.1-0.2-0.2-0.4-0.3-0.5
					c-0.1-0.1-0.3-0.2-0.4-0.2c-0.2,0-0.3-0.1-0.5-0.1c-0.7,0-1.2,0.5-1.3,1.5c-0.2-0.2-0.3-0.3-0.5-0.4c-0.2-0.1-0.3-0.3-0.5-0.4
					c0,0.1,0,0.3,0,0.4c0,0.1-0.1,0.1-0.2,0.1L4,66.6c-0.1,0-0.2,0.1-0.2,0.2h0.8c0.1,0.3,0.1,0.6,0,0.9C4.4,68,4.1,68.1,3.7,68
					c0,0.2,0.1,0.4,0.2,0.5C4,68.5,4.1,68.7,4,68.8c0,0.3,0,0.4-0.2,0.5c-0.2,0.1-0.3,0.1-0.5,0.1l-0.6,0.1c-0.2,0-0.3,0.1-0.4,0.2
					h0.3c0.1,0,0.2,0,0.2,0.1H2.5c0,0.3,0.1,0.4,0.3,0.5c0.2,0,0.3,0,0.5,0c0.2,0,0.4-0.1,0.7-0.2c0.2-0.1,0.5-0.1,0.7,0
					c0.1-0.1,0.1-0.3,0-0.4c-0.1-0.1-0.1-0.2-0.1-0.4c0.1-0.1,0.2-0.1,0.4-0.1c0.2,0,0.3,0,0.5,0l0.1,7.4c0,0.2-0.1,0.3-0.3,0.3
					l-2.9,0.1c0.1-0.1,0.1-0.2,0.2-0.3c-0.1,0-0.2,0-0.2,0.1l-0.1,0.3H0.4L0.3,77l-0.1-3.2c0.1,0,0.2-0.1,0.2-0.2
					c0-0.1,0-0.2-0.1-0.2c0,0.1-0.1,0.1-0.1,0.2v-1.3c0.1,0.6,0.2,0.9,0.4,1c0-0.1,0-0.3-0.1-0.4c-0.1-0.1,0-0.2,0.2-0.2
					c0,0.2,0,0.4,0.1,0.4c0.1,0,0.2,0.1,0.3,0.2c-0.2-0.3-0.3-0.6-0.3-0.9c0-0.4,0-0.7,0.1-1.1c-0.1,0-0.2,0-0.2,0l-0.2-0.1
					c0,0.1,0,0.2-0.1,0.2l-0.2,0.1V70c0.1,0,0.2,0,0.3,0l0.2,0c0-0.1,0-0.2,0.1-0.2c0.1,0,0.2-0.1,0.2-0.2c-0.1,0-0.3,0-0.4,0.1
					c-0.1,0-0.2,0-0.2-0.2c0.1,0,0.1-0.1,0.1-0.1c0-0.1,0-0.1-0.1-0.2c0-0.1-0.1-0.1-0.1-0.2c0-0.1,0-0.2,0-0.2
					c0-0.1,0.2-0.2,0.3-0.1s0.3,0,0.3-0.2c-0.3,0-0.5-0.1-0.5-0.2c0-0.1,0.1-0.2,0.3-0.3c-0.3,0-0.5,0-0.5-0.2s-0.1-0.4-0.2-0.6
					v-0.5h0.2c0-0.3-0.1-0.6-0.3-0.8v-1.6c0,0,0.1,0,0.1,0c-0.1-0.1-0.1-0.2,0-0.2c0.1-0.1,0.1-0.1,0.1-0.2c0,0,0-0.1-0.1-0.1
					c-0.1,0-0.1,0.1-0.2,0.1l0-2.1l0.1-0.5l0.2-0.2h4.4L5,62.5c0.5-0.6,1-1,1.6-1.4c0.7-0.3,1.4-0.5,2.1-0.5c0.4,0,0.8,0,1.2,0.1
					c0.3,0,0.6,0.1,0.9,0.2c0.1,0.3,0.3,0.6,0.6,0.7c0-0.2,0-0.3-0.1-0.5c0.5,0.3,0.8,0.7,1.2,1.2l0.1-0.1c0.1,0,0,0.1-0.1,0.2
					s-0.2,0.1-0.1,0.2c0.2,0,0.4,0,0.6-0.1c0.1-0.1,0.1-0.2,0-0.2C13.1,62,13,62,12.9,62c0.9-1,2.2-1.6,3.6-1.6c0.5,0,0.9,0,1.4,0.1
					c0.4,0.1,0.9,0.3,1.3,0.5v0.2c0.2,0,0.4,0,0.5,0.2c0.1,0.2,0.2,0.3,0.3,0.4c0-0.2-0.1-0.3-0.1-0.4c0.3,0.2,0.5,0.5,0.7,0.8
					c-0.1,0-0.3,0-0.4-0.1L19.7,62c-0.1,0-0.2-0.1-0.4-0.1c-0.1,0-0.3,0.1-0.3,0.2c0.2,0.1,0.5,0.2,0.7,0.2c0.3,0,0.5,0.1,0.7,0.3
					c0-0.1,0.1-0.1,0.2-0.1c0.5,0.9,0.8,2,0.7,3V66c-0.1,0-0.1,0.1-0.1,0.2c0,0,0.1,0,0.1,0v0.9c-0.1,0-0.3,0-0.4,0.1l-0.3,0.2
					l-0.3,0.1c-0.1,0-0.3,0-0.4-0.1c0,0.1,0,0.2,0,0.2c0,0.1,0,0.2-0.1,0.2c0,0.1-0.1,0.1-0.1,0.1s-0.1,0-0.1-0.1s0.1-0.1,0.1-0.2
					c0-0.1,0-0.2,0-0.3c-0.1,0-0.2-0.1-0.2,0c0,0,0,0.1,0,0.1c0,0.1,0,0.1,0,0.2c0,0.1,0,0.1-0.1,0.1s0-0.2,0-0.2
					c0,0-0.1-0.1-0.1-0.1l-0.1-0.1c0,0,0-0.1,0-0.2c0.3,0,0.5-0.1,0.5-0.2c-0.1,0-0.1-0.1-0.1-0.1c0,0,0,0,0,0c0-0.1,0-0.1,0-0.2
					c0-0.1,0-0.1,0-0.2c0-0.1-0.1-0.1-0.3-0.1C19.1,66.6,19,66.8,19,67c0,0.2-0.1,0.4-0.1,0.7c0,0.2-0.1,0.4-0.1,0.6
					c-0.1,0.2-0.2,0.4-0.3,0.5c0.1,0.4,0.3,0.8,0.6,1.2c0.3,0.4,0.6,0.7,0.9,1c0-0.1,0.1-0.3,0.2-0.4c0.1-0.1,0.2-0.1,0.3-0.1h0.4
					c0.2,0,0.3,0,0.5-0.1l0.1,6.4h-0.2c-0.1-0.1-0.1-0.1-0.1-0.1c0-0.1,0-0.3,0-0.4c0-0.1,0-0.3,0-0.4c0-0.1,0-0.2-0.1-0.3
					c-0.1-0.1-0.2-0.1-0.3-0.1c0,0.2,0,0.5,0.1,0.7l0.1,0.7l-2.9,0.1c0-0.1,0-0.2,0-0.3c-0.1,0-0.3-0.1-0.4-0.2
					c-0.1-0.1-0.2-0.2-0.3-0.2c0-0.1,0-0.2,0-0.3c0-0.1,0-0.2,0.1-0.2c0,0.3,0,0.4,0.1,0.5c0.1,0,0.3,0.1,0.4,0.2
					c-0.2-0.7-0.3-1.4-0.4-2.1c0.1,0.1,0.2,0,0.2,0c0,0,0,0,0,0c0.1-0.1,0.1-0.2,0.1-0.3c0-0.1,0-0.2,0-0.2c0-0.1-0.1,0-0.1,0.1
					s-0.1,0.2-0.2,0.2c-0.1-0.1-0.2-0.1-0.3-0.2c-0.1-0.1-0.2-0.3-0.3-0.4L17,72.9c-0.1,0.1-0.2,0.1-0.3,0c-0.1-0.1-0.2-0.1-0.3-0.1
					c-0.1,0.2-0.1,0.4-0.1,0.6c0.3-0.1,0.5-0.1,0.5,0c0.1,0.1,0.2,0.3,0.3,0.4c-0.2,0-0.3,0-0.3,0c0,0-0.1,0.1,0,0.2
					c0,0.1,0.1,0.2,0.1,0.2c0,0.1,0.1,0.1,0.2,0.2c-0.2,0-0.4,0-0.5,0.1c-0.1,0.1-0.2,0.2-0.3,0.3c0-0.1,0-0.2,0-0.3v-0.3
					c0.1,0,0.1,0,0.2,0.1c0.1,0,0.1,0,0.2,0v-0.5c-0.1,0-0.3,0-0.4-0.1l-0.1-6.8c0-0.3,0-0.6-0.1-0.9c-0.1-0.2-0.2-0.4-0.3-0.5
					c-0.1-0.1-0.3-0.2-0.4-0.2c-0.2,0-0.3-0.1-0.5-0.1c-0.4,0-0.8,0.2-1,0.5c-0.2,0.4-0.3,0.9-0.3,1.4v1.1h-0.6
					c0.1,0.1,0.2,0.2,0.3,0.3c0.1,0.1,0.2,0.2,0.4,0.2v2c-0.1,0.1-0.1,0.2,0,0.3v0.6c-0.2,0-0.3,0.1-0.3,0.2c0,0,0.1,0.1,0.2,0.1
					c0.1,0,0.1,0,0.2,0l0,5.2h-1.8c0-0.2,0-0.3-0.1-0.4c-0.1-0.1-0.2-0.1-0.3-0.2c0,0.1,0,0.2,0.1,0.2
					C11.5,76.7,11.6,76.8,11.6,76.8z M0.1,68.1c0,0.1,0.1,0.2,0.1,0.3C0.2,68.4,0.1,68.3,0.1,68.1z M0.3,70.1c0,0.1,0,0.1,0,0.2
					c0,0.1,0,0.1,0.1,0.2c0,0,0.1,0.1,0.1,0.1c0,0,0,0,0.1-0.1C0.5,70.3,0.4,70.2,0.3,70.1z M0.7,75.3c0,0.2-0.1,0.3-0.1,0.5
					c0,0.2,0.1,0.3,0.2,0.4c0-0.1,0-0.1,0-0.2c0-0.1,0.1-0.2,0.1-0.3c0-0.1,0-0.2,0-0.3C0.9,75.3,0.8,75.3,0.7,75.3z M1.4,77
					c0-0.1,0-0.2-0.1-0.3c-0.1-0.1-0.1-0.1-0.2-0.1c-0.1,0-0.1,0-0.2,0.1c-0.1,0.1-0.1,0.2-0.1,0.3H1.4z M0.8,65.6
					c0,0.3,0.2,0.4,0.5,0.4c0-0.2,0-0.3-0.1-0.4C1.1,65.5,1,65.5,0.8,65.6z M1.1,71.8C1,71.9,0.9,72,1,72.1c0,0.1,0.1,0.3,0.3,0.3
					c0-0.1,0-0.3,0-0.4C1.3,71.8,1.2,71.8,1.1,71.8L1.1,71.8z M1.2,70.8c0,0.1,0,0.2,0.1,0.3c0.1,0,0.2,0,0.3,0
					c0.1,0,0.2-0.1,0.3-0.2C1.9,70.8,2,70.7,2,70.6c-0.1-0.1-0.3-0.1-0.4,0C1.5,70.7,1.4,70.8,1.2,70.8L1.2,70.8z M2.1,65.2
					C2.1,65.1,2,65.1,2,65c0-0.1-0.1-0.2-0.1-0.2c0-0.1-0.1-0.1-0.2-0.1c-0.1,0-0.1,0-0.2,0.1c0.2,0,0.3,0.1,0.3,0.4
					c0,0.2,0,0.4-0.1,0.5C1.9,65.7,2.1,65.5,2.1,65.2C2.1,65.2,2.1,65.2,2.1,65.2L2.1,65.2z M2,68.3c0.2-0.1,0.3-0.2,0.5-0.3
					c0.1-0.2,0.1-0.4,0-0.5c-0.2,0.1-0.4,0.2-0.5,0.3C1.8,68,1.9,68.2,2,68.3z M3.4,63.3c-0.1-0.3-0.3-0.7-0.5-0.9
					c0,0.2,0.1,0.4,0.2,0.5C3.2,63.1,3.3,63.3,3.4,63.3L3.4,63.3z M3.7,61.2c-0.3,0-0.5,0-0.6,0.2c0.1,0,0.3,0,0.4,0
					C3.6,61.4,3.6,61.4,3.7,61.2L3.7,61.2z M3,69.8h0.2V70H3V69.8z M3.6,74.4c0-0.1,0-0.2,0-0.2c-0.1,0-0.1-0.1-0.2-0.1
					c-0.1,0-0.2,0-0.2,0c-0.1,0-0.1,0.1-0.1,0.1c0.1,0,0.2,0,0.3,0.1C3.4,74.4,3.5,74.4,3.6,74.4L3.6,74.4z M3.4,63.5
					c0,0.2,0,0.3,0.1,0.3C3.6,63.9,3.7,64,3.8,64C3.7,63.6,3.6,63.5,3.4,63.5z M3.9,65.7c0-0.1,0-0.1,0-0.2c0,0-0.1-0.1-0.1-0.1
					c-0.1,0-0.1,0-0.2,0c-0.1,0-0.1,0.1-0.1,0.1c0.1,0,0.2,0,0.1,0.1H3.9z M4.1,64.9c0.1,0,0.1,0,0.2,0.1c0,0,0.1,0.1,0.1,0.1
					c0-0.1,0-0.2-0.1-0.3c0-0.1-0.1-0.1-0.2-0.1L4.1,64.9z M4.8,68.4c0.1,0,0.2,0,0.3,0c0,0,0.1,0.1,0.1,0.2s0.1,0.2,0.1,0.2
					c0-0.1,0.1-0.2,0.1-0.3V69c-0.1,0-0.2,0.1-0.3,0.2c-0.1,0.1-0.3,0.1-0.4,0c0-0.1,0.1-0.1,0.1-0.2c0,0,0-0.1-0.1-0.1H4.6
					c-0.1,0-0.1-0.1-0.2-0.1c0.2,0,0.3-0.1,0.3-0.2C4.6,68.5,4.7,68.4,4.8,68.4C4.7,68.4,4.8,68.4,4.8,68.4L4.8,68.4z M4.8,67
					c0.2-0.1,0.3-0.1,0.4-0.1C5.2,66.9,5.3,67,5.4,67c0,0,0,0.1,0,0.1c0-0.1-0.2-0.1-0.3-0.1S4.8,67.1,4.8,67L4.8,67z M5.1,67.7
					c0-0.1,0-0.2,0.1-0.2c0.1,0,0.2,0,0.2-0.1V68l-0.1,0.1l-0.1,0.1c0-0.1,0-0.2-0.1-0.2C5,67.9,5,67.8,5.1,67.7L5.1,67.7z
					 M5.4,73.9c0-0.2-0.1-0.3-0.3-0.4C5.1,73.7,5.3,73.9,5.4,73.9L5.4,73.9z M8.3,74.3c0.1,0,0.2,0,0.2,0c0,0,0,0,0,0
					c0.1,0.2,0.1,0.4,0,0.6c0,0.1-0.1,0.1-0.2,0.1c0,0,0,0,0,0C8.4,74.8,8.4,74.5,8.3,74.3z M9.7,65.5c-0.1,0.2-0.1,0.5,0,0.8
					c0.1,0.2,0.3,0.4,0.5,0.6c0.2,0.2,0.5,0.3,0.7,0.4c0.2,0.1,0.4,0.1,0.6,0.1l-0.4-0.2c-0.1,0-0.2-0.1-0.3-0.2l-0.3-0.2l-0.4-0.3
					c0-0.4,0-0.7-0.1-1.1C10,65.2,10,64.9,10,64.6c0,0.1-0.1,0.2-0.1,0.3c0,0,0,0,0-0.1c0-0.1,0-0.1-0.1-0.2c0-0.1-0.1-0.1-0.2-0.1
					c-0.1,0.2-0.2,0.4-0.1,0.6C9.5,65.3,9.6,65.5,9.7,65.5L9.7,65.5z M9.7,75.5c0.1-0.1,0.1-0.2,0.1-0.3c0-0.2,0-0.3-0.1-0.3
					c-0.1,0.1-0.1,0.2-0.1,0.3C9.5,75.5,9.6,75.6,9.7,75.5L9.7,75.5z M10,63.5c0,0.1,0,0.2,0,0.3c0,0.1,0.1,0.1,0.1,0.2
					c0,0,0.1,0.1,0.2,0.1c0.1,0,0.1,0,0.1-0.1c-0.1,0-0.1,0-0.1-0.1c0-0.1,0-0.1-0.1-0.2C10.1,63.6,10,63.6,10,63.5L10,63.5z
					 M10.5,73.8h-0.4c0,0.3,0.1,0.4,0.4,0.4V73.8z M10.1,74.8c0,0.1,0,0.3,0.1,0.4c0.1,0.2,0.1,0.2,0.2,0
					C10.3,75,10.2,74.9,10.1,74.8L10.1,74.8z M10.8,71.3c0-0.1,0.1-0.3,0.1-0.4c-0.2,0-0.3,0-0.3-0.1c0-0.1-0.1-0.2-0.2-0.2
					c-0.2,0.2-0.2,0.3-0.1,0.5C10.4,71.2,10.6,71.3,10.8,71.3L10.8,71.3z M11.4,71.7c0.1,0.1,0.2,0.1,0.2,0.1c0,0,0.1-0.1,0.1-0.1
					c0,0,0-0.1-0.1-0.1S11.5,71.7,11.4,71.7L11.4,71.7z M12.3,67.4c0,0.3,0,0.5,0.2,0.5C12.5,67.7,12.4,67.6,12.3,67.4L12.3,67.4z
					 M12.4,63h0.2c0-0.1,0.1-0.1,0.1-0.2c0,0,0.1-0.1,0-0.2h-0.4L12.4,63z M13.4,68.6C13.4,68.6,13.4,68.5,13.4,68.6L13.4,68.6z
					 M13.5,62c-0.1,0.1-0.1,0.2,0,0.3c0.1,0.1,0.2,0.2,0.3,0.2c0.1,0,0.2,0,0.4,0c0.1,0,0.2-0.1,0.3-0.1c-0.2,0-0.4-0.1-0.5-0.2
					C13.8,62.2,13.7,62.1,13.5,62L13.5,62z M14.3,61.2c-0.1,0-0.2,0-0.3,0c-0.1,0-0.1,0.1-0.1,0.2c0,0.1,0,0.2-0.1,0.2
					c0,0.1-0.1,0.1-0.1,0.2c0.2,0,0.3-0.1,0.4-0.3C14.2,61.4,14.2,61.3,14.3,61.2L14.3,61.2z M13.8,64.2c0.1,0.1,0.2,0.1,0.3,0.1
					c0.1,0,0.2-0.1,0.2-0.2c-0.1,0-0.2,0-0.3,0C13.9,64,13.8,64.1,13.8,64.2c0,0,0,0.1,0,0.1L13.8,64.2z M14.5,61.4
					c0,0.1,0,0.1-0.1,0.1c-0.1,0-0.1,0-0.2,0.1c0,0-0.1,0.1-0.1,0.2c0.1,0,0.1,0.1,0.1,0.4c0.1-0.1,0.3-0.2,0.4-0.1
					c0.1,0.1,0.2,0.1,0.3,0.2c0.1,0.1,0.2,0.2,0.3,0.2c0.1,0.1,0.2,0,0.4-0.1c-0.3-0.1-0.5-0.3-0.6-0.5c-0.1-0.2-0.3-0.3-0.5-0.4
					L14.5,61.4z M15.3,63c0-0.1,0-0.2-0.1-0.2c-0.1-0.1-0.1-0.1-0.2-0.2c-0.1,0-0.2-0.1-0.3,0c-0.1,0-0.1,0-0.2,0.1
					c0.1,0,0.3,0.1,0.4,0.2c0.1,0.2,0.2,0.3,0.4,0.3L15.3,63z M15.5,61.1c-0.4,0-0.5,0.1-0.5,0.1s0.1,0,0.2,0L15.5,61.1
					c0.2,0.2,0.2,0.2,0,0.1L15.5,61.1z M16.8,61c0,0.1-0.1,0.2-0.2,0.2c-0.1,0-0.2,0-0.3,0c-0.1,0-0.2,0-0.3,0
					c-0.1,0-0.1,0.1-0.2,0.3c0.4,0.1,0.7,0.2,1,0.5c0.3,0.2,0.6,0.4,0.9,0.5c0-0.2,0-0.4-0.1-0.4c-0.2,0-0.3-0.1-0.5-0.1
					c-0.1-0.2-0.1-0.3-0.1-0.5C17.2,61.2,17,61,16.8,61C16.8,61,16.8,61,16.8,61z M16.2,65.8c0,0.3,0.1,0.5,0.3,0.6
					c0.3,0.1,0.4,0.1,0.5,0c-0.1,0-0.2-0.1-0.2-0.1L16.7,66c0-0.1-0.1-0.2-0.2-0.2C16.4,65.8,16.3,65.8,16.2,65.8L16.2,65.8z
					 M16.3,61.6c-0.1,0.1-0.2,0.2-0.1,0.3s0.1,0.1,0.4,0.1C16.6,61.8,16.5,61.7,16.3,61.6L16.3,61.6z M17.2,76.4
					c0,0.1,0.1,0.2,0.2,0.2c0.1,0,0.1,0.1,0.1,0.3V77h-0.9l-0.3-0.1v-1.7c0.1,0.1,0.2,0.1,0.3,0.2c0.1,0.1,0.2,0.2,0.3,0.3
					c-0.1,0-0.3-0.1-0.4-0.1c-0.1,0.7,0.1,1.1,0.5,1.3c-0.1-0.2,0-0.4,0.2-0.4C17.1,76.3,17.2,76.3,17.2,76.4L17.2,76.4z M16.5,62.5
					c0.1,0,0.1,0,0.2,0c0,0,0.1-0.1,0.1-0.2c0-0.1,0-0.1,0-0.2c0-0.1,0-0.1-0.1,0c0,0.1,0,0.1-0.1,0.1c0,0,0,0,0,0L16.5,62.5z
					 M17,64.4c0.2,0,0.3,0,0.3-0.2c0-0.2,0-0.3,0.1-0.4c-0.1,0-0.1-0.1-0.2-0.1c0-0.1-0.1-0.1-0.2-0.1c0,0.1-0.1,0.2,0,0.2
					c0,0.1,0,0.2,0,0.2c0,0.1,0.1,0.1,0.1,0.2C17.1,64.3,17,64.3,17,64.4z M17,66c0.2,0,0.4,0,0.6-0.1c0.1-0.1,0.2-0.3,0.3-0.4
					c0-0.2,0-0.3,0-0.5c0-0.2-0.1-0.3-0.3-0.4v1c-0.3-0.1-0.4-0.1-0.5,0C17,65.6,17,65.7,17,66z M17.1,70.7c0.1,0,0.2,0,0.3-0.2
					c0.1-0.2,0.1-0.2,0-0.2c0,0.1-0.1,0.2-0.2,0.2C17.1,70.6,17,70.6,17.1,70.7L17.1,70.7z M18.6,72.2c-0.1,0-0.2,0-0.2-0.1
					c0-0.1,0-0.2,0-0.3c0-0.1,0-0.2,0-0.3c0-0.1-0.1-0.1-0.1-0.2c-0.1,0.1-0.2,0.1-0.2,0.2c0,0.1,0,0.1,0,0.2c0,0.1,0.1,0.2,0.1,0.2
					c0,0.1,0,0.2-0.1,0.2c-0.1,0-0.2-0.1-0.1-0.2s0-0.2-0.1-0.2c-0.1,0.2-0.1,0.3-0.1,0.5c0,0.2-0.1,0.2-0.4,0.2V73
					c0.3,0,0.4,0,0.4-0.2c0-0.2,0.1-0.3,0.2-0.4c0.2-0.1,0.3-0.1,0.4,0S18.5,72.4,18.6,72.2L18.6,72.2z M17.6,62.9
					c-0.1,0.1-0.2,0.3-0.1,0.4c0.1,0.2,0.2,0.2,0.5,0.2C18,63.2,17.8,63,17.6,62.9L17.6,62.9z M17.6,70.7c0,0.1,0,0.3,0,0.4
					c0,0.1,0.1,0.2,0.2,0.1C17.9,70.9,17.8,70.8,17.6,70.7L17.6,70.7z M17.9,64.2C18,64.1,18,64,18,63.9c0.1-0.2,0-0.3-0.2-0.3
					c0,0.1,0,0.1,0,0.2c0,0.1-0.1,0.1-0.1,0.2c0,0-0.1,0.1-0.1,0.2C17.7,64.1,17.8,64.3,17.9,64.2L17.9,64.2z M17.8,68.7
					c0.2,0.5,0.4,0.8,0.6,0.9c-0.1-0.2-0.2-0.4-0.3-0.7C17.9,68.7,17.8,68.6,17.8,68.7L17.8,68.7z M18.4,71.1c0-0.3-0.1-0.5-0.3-0.5
					C18,70.9,18.1,71.1,18.4,71.1L18.4,71.1z M18.1,62.5c0.1,0.2,0.1,0.2,0.2,0.2c0,0,0.1-0.1,0.1-0.1c0-0.1,0-0.1,0-0.2
					C18.3,62.4,18.2,62.4,18.1,62.5L18.1,62.5z M18.1,63.5h0.3c0-0.1,0-0.2,0.1-0.2c0.1,0,0.1-0.1,0-0.2h-0.4L18.1,63.5z M18.9,71.7
					c-0.1,0.1-0.1,0.2-0.1,0.4c0,0.1,0,0.3,0.1,0.4c0.1,0.1,0.1,0.2,0.2,0.3c0.1,0.1,0.3,0.1,0.4,0.1c-0.2-0.1-0.4-0.4-0.4-0.6
					C19.1,72.1,19,71.9,18.9,71.7L18.9,71.7z M19,62.7c0,0.2,0.1,0.4,0,0.6c0,0.2,0,0.3,0,0.5s0,0.3,0,0.4c0,0.2,0,0.4,0,0.5
					c0.1,0,0.2,0,0.2-0.1c0.1-0.1,0.2-0.1,0.2-0.1c0-0.2,0-0.3-0.1-0.3c-0.1,0-0.2-0.2-0.3-0.3c0.1,0,0.2,0,0.3,0H20
					c0.2,0,0.3,0,0.5-0.1c0.1,0,0.3-0.1,0.3-0.3c-0.2-0.1-0.5-0.1-0.7-0.1c-0.2,0-0.4,0.2-0.6,0.3c-0.1-0.1-0.1-0.3-0.1-0.4
					c0-0.2,0-0.3,0.1-0.4c0.1,0,0.2,0,0.4,0.1c0.1,0,0.1,0,0.2-0.2c-0.2,0-0.4-0.1-0.5,0c-0.1,0-0.3,0-0.4,0
					C19.1,62.8,19.1,62.7,19,62.7L19,62.7z M19.1,73c-0.1,0.1-0.1,0.2,0,0.3c0.1,0.1,0.1,0.1,0.2,0.2c0.1,0,0.2,0,0.3,0
					c0.1,0,0.1,0,0.2-0.1c-0.1,0-0.2-0.1-0.3-0.2C19.3,73.1,19.2,73,19.1,73z M19.8,71c-0.2,0-0.3,0-0.3,0.1s-0.2,0.1-0.4,0.1
					c0,0.1,0,0.2,0,0.3c0,0.1,0,0.2,0.1,0.2c0,0,0,0,0,0c0-0.1,0-0.2,0-0.3c0.1,0,0.1-0.1,0.2-0.1c0.1,0,0.2,0,0.2-0.1
					C19.8,71.2,19.8,71.1,19.8,71z M21.3,68.1c-0.3-0.1-0.4-0.3-0.3-0.4c0.1-0.2,0.2-0.3,0.4-0.4v0.4h-0.1v0.2h0.1v0.8
					c-0.1,0-0.2,0.1-0.3,0.2C21,68.8,21,68.9,21,69c0.1,0,0.2,0,0.4,0v0.2c-0.3,0-0.6,0.2-0.8,0.3c-0.2,0.2-0.5,0.3-0.7,0.4
					c-0.1-0.1-0.2-0.1-0.2-0.3c0-0.1-0.1-0.3-0.1-0.4c0-0.1,0-0.3,0-0.4c0-0.1,0.1-0.2,0.2-0.2c0,0.2,0,0.3,0,0.5
					c0,0.2,0,0.3,0.1,0.4c0.2-0.4,0.4-0.7,0.6-1C20.7,68.3,21,68.1,21.3,68.1L21.3,68.1z M19.8,66.7c0.1,0.2,0.1,0.2,0.2,0.2
					c0,0,0.1-0.1,0-0.1c0-0.1,0-0.1,0-0.2C19.9,66.6,19.8,66.6,19.8,66.7L19.8,66.7z M20.5,62.7c-0.1,0.2-0.1,0.3-0.1,0.4
					c0,0.1,0.1,0.1,0.1,0.1s0.1,0,0.1-0.1C20.6,63,20.6,62.8,20.5,62.7L20.5,62.7z M20.9,70.1c0,0,0.1,0,0.1-0.1c0-0.1,0-0.2,0-0.2
					c0-0.1,0-0.1,0.1-0.2c0-0.1,0.1-0.1,0.2-0.1v0.2c0,0-0.1,0.1-0.2,0.1c0,0.1,0,0.2,0,0.3c0.1,0.1,0.1,0.2,0,0.3
					c-0.2,0-0.3,0-0.3-0.1s-0.1-0.1-0.3-0.1c0-0.1,0.1-0.1,0.1-0.1C20.9,70.1,20.9,70.1,20.9,70.1C20.9,70.2,20.9,70.2,20.9,70.1
					L20.9,70.1z M21,71.1c0.1,0,0.1,0,0.1,0.1c0,0,0.1,0.1,0.1,0.1c0-0.1,0-0.2,0-0.3c0-0.1-0.1-0.1-0.2-0.1L21,71.1z"/>
				<path class="st1" d="M34.3,61.3c0.9,0.5,1.7,1.3,2.2,2.2c0.6,1.2,0.9,2.6,0.8,4L37.3,70c-0.1,0-0.1-0.1-0.1-0.2
					c-0.1,0.2-0.3,0.3-0.6,0.4c-0.2,0.1-0.5,0-0.6-0.2c-0.2,0.2-0.2,0.5-0.1,0.7L35,70.6l-0.2-0.2v0.3l-5-0.1c0-0.2,0-0.3-0.2-0.4
					c0,0.1,0,0.1-0.1,0.1c-0.1,0-0.1,0-0.1,0.1c0.1,0,0.1,0.1,0.1,0.1H29c-0.1-0.1-0.2-0.1-0.3-0.1c-0.1,0-0.1,0.1-0.2,0.2
					c0.1,0.1,0.3,0.2,0.4,0.1c0,0.2,0.1,0.4,0.1,0.6c0.1,0.2,0.1,0.3,0.2,0.5l0,0c0.3,0.5,0.8,0.9,1.4,1.1c0.8,0.2,1.6,0.3,2.5,0.3
					c0.4,0,0.7,0,1.1,0c0.4,0,0.8-0.1,1.2-0.2c0,0,0,0,0,0.1c-0.1,0.1-0.2,0.2-0.2,0.3c-0.1,0.1-0.1,0.2,0,0.3
					c0.3,0,0.5-0.1,0.5-0.3c0-0.2-0.1-0.3-0.2-0.4h0.2c0,0,0.1,0,0.1,0c0.1,0,0.2,0,0.2,0.1v0.6h-0.2c0,0.3,0,0.4,0.2,0.5v2.1
					c0,0.1,0,0.2,0,0.3c0,0.1-0.1,0.2-0.1,0.2c-0.1,0-0.3,0.1-0.5,0.1l0,0h-0.2v0.1l-0.4,0.1l-0.4,0.1l0,0h-0.2l0,0
					c-0.4,0-0.8,0.1-1.2,0.1h-1c-1.2,0-2.4-0.2-3.6-0.6c0-0.2-0.1-0.4-0.2-0.6c-0.1-0.2-0.3-0.3-0.4-0.3c0,0.1-0.1,0.2-0.2,0.1
					c-0.1,0-0.2,0-0.2,0.1c0,0,0,0,0,0.1c0.3,0,0.5,0.1,0.6,0.2c0.1,0.1,0.2,0.3,0.3,0.4c-0.7-0.2-1.3-0.5-1.8-1
					c0-0.1-0.1-0.2-0.2-0.1c-0.2-0.2-0.5-0.5-0.7-0.7c-0.2-0.3-0.4-0.6-0.6-0.9c0-0.2,0-0.3-0.1-0.3c-0.1-0.3-0.2-0.5-0.3-0.8
					c-0.1-0.3-0.2-0.6-0.2-0.9v-0.1c-0.1-0.7-0.2-1.5-0.2-2.3c0,0.2,0.1,0.4,0.2,0.6c0.1,0.2,0.2,0.4,0.3,0.6c0,0.1,0,0.2,0,0.3
					c0,0.1,0,0.2,0,0.3c0,0.1,0,0.2,0.1,0.3c0.1,0.1,0.2,0.2,0.3,0.2c0.1-0.2,0.1-0.5,0.1-0.8c-0.1-0.2-0.2-0.5-0.4-0.6
					c-0.1-0.4-0.2-0.7-0.2-1.1c0-0.4-0.2-0.7-0.4-1V68c0.1,0.1,0.2,0.1,0.4,0.1c0.1-0.1,0.2-0.1,0.4-0.1v-0.2c-0.1,0-0.1,0-0.1-0.1
					c0,0,0-0.1-0.1-0.1c0,0.1-0.1,0.2-0.3,0.1c-0.1,0-0.2,0-0.3,0.1v-0.5c0-1.2,0.2-2.4,0.8-3.5c0.4-0.9,1.1-1.7,1.9-2.2
					c0,0.1,0,0.2,0.1,0.2c0.1,0,0.2,0.1,0.2,0.1v-0.5h-0.1l0.4-0.2c0.1-0.1,0.3-0.1,0.4-0.2v0.2H28v-0.2h-0.1c0.3-0.1,0.6-0.2,1-0.3
					c0.3-0.1,0.6-0.1,1-0.2c-0.1,0.2-0.1,0.3-0.1,0.5c-0.2,0-0.3,0-0.5,0c-0.2,0-0.3,0-0.3-0.1c0.1,0,0.2,0,0.4,0c0.2,0,0.2,0,0-0.1
					c-0.1,0-0.3,0.1-0.4,0.1c0,0.1,0,0.2,0,0.3c0,0.1,0.1,0.1,0.2,0.2l0.2,0.1c0.1,0.1,0.1,0.2,0.1,0.2c-0.1,0-0.1-0.1-0.2-0.1
					L29,61.6c-0.1,0-0.2-0.1-0.2-0.1c-0.1,0-0.2,0-0.2,0.1c0,0.2,0.1,0.3,0.2,0.4l0.4,0.5c0.1-0.2,0.2-0.4,0.3-0.6
					c0.1-0.2,0.3-0.3,0.6-0.3c-0.1-0.2,0-0.4,0.2-0.6c0.1-0.2,0.3-0.3,0.5-0.4c0.2,0,0.4,0,0.6,0c0.5,0,1.1,0.1,1.6,0.2
					C33.3,60.9,33.8,61.1,34.3,61.3c-0.3,0-0.4,0.1-0.3,0.3c0,0.2,0.1,0.3,0.2,0.4s0.1-0.1,0.3-0.1c0-0.1,0-0.2-0.1-0.2
					C34.3,61.5,34.3,61.4,34.3,61.3z M24.7,67.4l0.9,0.2c0.3,0.1,0.6,0.1,0.8,0c-0.2-0.2-0.5-0.3-0.8-0.3
					C25.3,67.4,25,67.4,24.7,67.4L24.7,67.4z M25.6,72c-0.1,0.1-0.1,0.2-0.2,0.3c-0.1,0.2-0.1,0.3-0.1,0.5c0,0.2,0,0.3,0,0.5
					c0,0.1,0.2,0.2,0.4,0.2c0-0.1,0-0.3,0-0.4l0.1-0.3c0-0.1,0-0.2,0-0.3C25.8,72.3,25.8,72.1,25.6,72z M25.8,74l0.9,0.3
					c0.3,0.1,0.5,0.4,0.5,0.7c0.1-0.2,0-0.4-0.1-0.6c-0.1-0.2-0.3-0.3-0.4-0.4c-0.1-0.1-0.3-0.1-0.5-0.2C26,73.8,25.8,73.9,25.8,74z
					 M26.3,64.7c0,0.1-0.1,0.1-0.1,0.2c-0.1,0-0.1,0.1-0.1,0.2c0,0.1,0.1,0.1,0.2,0.1c0.1,0,0.1-0.1,0.2-0.1c0-0.1,0.1-0.1,0-0.2
					C26.5,64.7,26.4,64.7,26.3,64.7L26.3,64.7z M27.2,75.8c0-0.2,0-0.3,0-0.5c0-0.1-0.1-0.2-0.3-0.2c0,0.1,0,0.3,0.1,0.4
					C27,75.7,27.1,75.8,27.2,75.8L27.2,75.8z M27.1,74c0,0.2,0,0.4,0.2,0.5c0.2,0.2,0.3,0.2,0.3,0c-0.1,0-0.1,0-0.2-0.1
					c0-0.1,0-0.1,0-0.2c0-0.1,0-0.1,0-0.2C27.3,74,27.2,74,27.1,74z M27.3,66.9c-0.1,0.1,0,0.2,0.1,0.3c0.1,0.1,0.2,0.1,0.3,0.2
					c0.1,0,0.2,0,0.3,0c0.1,0,0.1-0.1,0.1-0.2C27.8,67,27.5,66.9,27.3,66.9L27.3,66.9z M28.1,66.9c0.1,0,0.1,0,0.1,0.1h0.2
					c0-0.1,0-0.1,0-0.2c0,0-0.1-0.1-0.1-0.1c-0.1,0-0.1,0-0.2,0C28.1,66.8,28.1,66.9,28.1,66.9L28.1,66.9z M28.7,69.5
					c-0.1,0-0.1,0-0.1-0.1c0-0.1,0.1-0.1,0.1-0.2c0,0,0.1-0.1,0.1-0.2c0,0,0-0.1-0.1-0.1s-0.1,0.1-0.1,0.1C28.5,69,28.4,69,28.3,69
					c0,0.2,0.1,0.3,0.1,0.4C28.5,69.7,28.6,69.7,28.7,69.5L28.7,69.5z M28.8,72c0,0.1,0.1,0.2,0.1,0.3c0,0.1,0,0.2-0.1,0.3
					c0.1,0,0.2,0,0.2,0c0.1-0.1,0.2-0.1,0.2-0.1C29.2,72.2,29.1,72,28.8,72z M32.9,66.9c0.2,0.1,0.4,0.2,0.6,0.2
					c0.2,0.1,0.4,0.2,0.5,0.4c0-0.2,0-0.4-0.1-0.6c-0.1-0.2,0-0.2,0.3-0.3c-0.1-0.1-0.1-0.2-0.1-0.3c0-0.1,0-0.2,0-0.3
					c0-0.1,0-0.2,0-0.3c0-0.1-0.1-0.2-0.2-0.3c0.1,0,0.1,0,0.2,0c0.1,0,0.1,0,0.1-0.1c-0.1,0-0.3,0-0.4,0c-0.1,0-0.2,0.1-0.1,0.2
					c0.1,0,0.2,0,0.2,0c0,0.1,0.1,0.2,0,0.2c0,0.1,0,0.2,0,0.3c0,0.1-0.1,0.1-0.1,0.1h-0.6c0.1,0.2,0.1,0.3,0,0.3
					c-0.1,0-0.2,0.1-0.2,0.1c0-0.1,0-0.3,0-0.4s0-0.2,0-0.3s0.1-0.1,0-0.2s0,0-0.1,0c-0.1-0.4-0.4-0.7-0.8-0.8
					c-0.3-0.2-0.7-0.2-1-0.3c-0.5,0-1.1,0.2-1.5,0.6c-0.5,0.7-0.7,1.5-0.6,2.3l3.6,0.1c0.1,0.1,0.2,0.1,0.3,0.1c0-0.3,0-0.4,0.1-0.5
					h-0.1V66.9z M29.6,69.8c0.1,0,0.1,0,0.2,0c0,0,0.1-0.1,0.1-0.2c0-0.1,0-0.1,0-0.2c0,0-0.1,0-0.2,0L29.6,69.8z M30.2,61.8
					L30,62.1c-0.1,0.1-0.2,0.2-0.2,0.3c-0.1,0.1-0.1,0.2-0.1,0.3c0,0.1,0.1,0.2,0.3,0.3c0-0.1,0-0.2,0.1-0.3l0.2-0.4
					c0.1-0.1,0.1-0.2,0.1-0.3C30.4,61.9,30.3,61.9,30.2,61.8L30.2,61.8z M30,75.4c0.1,0.1,0.2,0.1,0.2,0.1c0,0,0.1-0.1,0.1-0.1
					c0,0,0-0.1-0.1-0.1C30.2,75.3,30,75.3,30,75.4z M30.8,63.8c-0.1-0.1-0.2-0.1-0.2-0.1c0,0-0.1,0.1,0,0.1c0,0.1,0.1,0.1,0.1,0.1
					C30.7,64,30.7,64,30.8,63.8L30.8,63.8z M30.6,74.9c-0.1,0.1-0.1,0.2-0.1,0.3c0,0.1,0.1,0.2,0.2,0.2c0-0.1,0-0.2,0-0.3
					C30.8,75,30.7,74.9,30.6,74.9C30.6,74.9,30.6,74.9,30.6,74.9L30.6,74.9z M30.8,61.6c0.1,0.2,0,0.4-0.1,0.5
					c-0.1,0.2-0.1,0.3,0.1,0.4c0-0.1,0.1-0.3,0.2-0.3c0.1,0,0.2-0.2,0.2-0.4c-0.1,0-0.2,0-0.2,0C30.9,61.7,30.8,61.6,30.8,61.6
					L30.8,61.6z M30.6,69.1c0.1,0,0.2-0.1,0.4-0.1c0.1,0,0.2-0.1,0.3-0.2c-0.2,0-0.3,0-0.5-0.1C30.6,68.7,30.6,68.8,30.6,69.1
					L30.6,69.1z M31.6,64.6c0-0.3-0.2-0.5-0.5-0.5c0,0-0.1,0-0.1,0c0,0.1,0,0.3,0.1,0.3c0,0,0.1,0,0.1,0
					C31.5,64.4,31.6,64.5,31.6,64.6L31.6,64.6z M31.7,61.5c0-0.3,0-0.5-0.1-0.5c-0.1-0.1-0.2-0.1-0.2,0c0,0.1,0,0.2,0,0.3
					C31.3,61.4,31.5,61.4,31.7,61.5L31.7,61.5z M31.5,61.6c-0.1,0.2-0.1,0.3-0.1,0.4c0,0.1,0.1,0.1,0.2,0.1c0.1,0,0.1-0.1,0.1-0.1
					S31.6,61.7,31.5,61.6L31.5,61.6z M33.3,69.4c0,0.2,0,0.3,0.1,0.3c0.1,0,0.2,0,0.3,0.1c-0.1-0.3-0.2-0.5-0.4-0.5
					C33.4,69.3,33.4,69.4,33.3,69.4L33.3,69.4z M33.4,64.7c0,0.1-0.1,0.2-0.1,0.4c0,0.1,0.1,0.2,0.2,0.3c0-0.2,0-0.2,0.1-0.3
					s0.2-0.1,0.2-0.2s-0.1-0.1-0.1-0.1H33.4z M33.7,61.6c0,0.3,0,0.6,0,0.9c-0.1,0.2,0,0.5,0.2,0.6c0-0.3,0.1-0.4,0.2-0.4
					c0.1,0,0.3,0.1,0.4,0.2c0.1-0.2,0-0.5-0.1-0.7C34.1,62,33.9,61.8,33.7,61.6L33.7,61.6z M34.4,68.2c0-0.1,0-0.2,0-0.3
					s-0.1-0.1-0.3-0.1c0,0.1-0.1,0.1-0.1,0.2c0,0,0,0.1,0,0.2L34.4,68.2z M34,70.1c-0.1,0.1-0.1,0.2-0.1,0.2c0,0,0.1,0.1,0.1,0.1
					c0,0,0.1,0,0.1-0.1S34.1,70.2,34,70.1z M34.7,67.5c0,0-0.1,0-0.1-0.1l-0.1-0.1c0,0.1,0,0.1,0,0.1c0,0-0.1,0.1,0,0.1
					c0,0,0.1,0,0.1,0.1c0,0,0.1,0.1,0.1,0.1c0-0.1,0-0.1,0-0.1C34.7,67.6,34.7,67.6,34.7,67.5L34.7,67.5z M34.4,65.4
					c0.1,0,0.2,0,0.2,0c0,0,0.1-0.1,0.1-0.2c0-0.1,0-0.1,0-0.2c0-0.1,0-0.1,0.1-0.1h-0.3L34.4,65.4z M34.5,76.5
					c-0.1,0-0.1,0.1-0.1,0.2c0,0.1,0.1,0.1,0.2,0.2c0.1,0,0.2,0.1,0.3,0.1c0.1,0,0.1-0.1,0.1-0.2c-0.2,0.1-0.3,0.1-0.3,0
					S34.7,76.5,34.5,76.5L34.5,76.5z M35,67.4c0-0.2,0-0.3-0.2-0.4s-0.3,0-0.3,0.2c0.1,0,0.2,0.1,0.2,0.1
					C34.8,67.4,34.9,67.4,35,67.4z M34.5,63.6c-0.1,0.2-0.1,0.4,0,0.5c0.1,0.1,0.1,0,0.2-0.1s0-0.4,0-0.5S34.6,63.5,34.5,63.6
					L34.5,63.6z M35.8,68.7c0-0.1,0-0.2-0.1-0.3c-0.1-0.1-0.2-0.1-0.3-0.1c-0.1,0-0.3,0-0.4,0c-0.1,0-0.2,0-0.3,0
					c0,0.2,0,0.4-0.1,0.5c0.1,0,0.2-0.1,0.3-0.1l0.3-0.1c0.1,0,0.2,0,0.3,0C35.6,68.5,35.7,68.6,35.8,68.7L35.8,68.7z M35.6,64.9
					c0-0.2,0-0.3-0.1-0.3c-0.1,0-0.2,0-0.2,0c-0.1,0-0.1,0.1-0.2,0.1c-0.1,0-0.1,0.1,0,0.2L35.6,64.9z M36.4,63.6l-0.3-0.1
					c-0.1,0-0.2-0.1-0.3-0.2c-0.1-0.1-0.1-0.1-0.2-0.2c0-0.1,0.1-0.2,0.2-0.3h-0.4c0,0.1,0,0.1,0,0.1l-0.1,0.1
					c0.1,0.1,0.2,0.1,0.2,0.2c0.1,0.1,0.2,0.2,0.2,0.3c0.1,0.1,0.2,0.2,0.3,0.2C36.2,63.7,36.3,63.7,36.4,63.6L36.4,63.6z
					 M35.7,70.4c0.1-0.1,0.1-0.2,0.1-0.3c0-0.1-0.1-0.2-0.2-0.2c0,0.1,0,0.2,0,0.3C35.5,70.3,35.6,70.4,35.7,70.4L35.7,70.4z
					 M36.7,69.8c0-0.2,0-0.3,0.1-0.5c0.1-0.1,0.1-0.3,0.2-0.4c-0.1,0-0.3,0.1-0.3,0.2c-0.1,0.1-0.1,0.2-0.2,0.3
					c0,0.1-0.1,0.2-0.2,0.2c-0.1,0-0.2,0-0.3-0.2c0,0.3,0,0.5,0.2,0.4C36.3,69.8,36.5,69.8,36.7,69.8L36.7,69.8z M36,68.2
					c0,0.1,0,0.2,0,0.2c0,0.1,0,0.1,0.1,0.2c0-0.1,0-0.2,0.1-0.1C36.3,68.2,36.2,68.1,36,68.2z M36.9,68c0.1-0.2-0.1-0.4-0.3-0.5
					c-0.2-0.1-0.4-0.1-0.6,0.1c0.2,0,0.3,0.1,0.5,0.2L36.9,68z M36.4,66c0.1-0.3,0-0.4-0.3-0.4C36.1,65.9,36.2,66,36.4,66L36.4,66z
					 M36.7,70.3c0.1,0.1,0.1,0.1,0.1,0.2c0,0.1,0,0.1,0,0.2h-0.3c0-0.1,0-0.1,0-0.2C36.6,70.5,36.7,70.4,36.7,70.3L36.7,70.3z"/>
				<path class="st1" d="M53.6,76.3c-0.1,0.2-0.3,0.4-0.3,0.6c0,0,0,0,0,0.1h-4l-0.2-0.1l-0.2-1.3c-0.2,0.2-0.4,0.3-0.6,0.5
					l-0.6,0.4c-0.1-0.3-0.3-0.5-0.4-0.8c-0.1-0.3-0.2-0.5-0.3-0.8c-0.1,0-0.2-0.1-0.3-0.1l-0.3-0.2c-0.1-0.1-0.2-0.1-0.3-0.1
					c-0.1,0-0.2,0-0.3,0.1c0,0.2,0.1,0.4,0.3,0.5c0.2,0.1,0.5,0.1,0.7,0c0.1,0.3,0.2,0.6,0.3,0.9l0.3,0.8c0,0-0.1,0-0.1,0l-0.1,0.1
					l-0.1,0.1L47,76.9c0-0.1-0.1-0.2,0-0.3c0-0.1,0-0.2,0-0.3c0-0.1,0-0.2,0-0.2c0-0.1-0.1-0.2-0.2-0.2c-0.1,0.2-0.2,0.3-0.3,0.2
					c-0.1-0.1-0.2-0.2-0.3-0.4c-0.1-0.1-0.1-0.3-0.2-0.4c-0.1-0.1-0.2-0.1-0.3,0c0,0.2,0.1,0.3,0.3,0.5c0.1,0.1,0.2,0.2,0.3,0.4
					c0,0.1,0,0.3,0,0.4c-0.1-0.1-0.2-0.1-0.3-0.1h-0.4c0.1,0.1,0.1,0.3,0,0.4c-0.1,0.2,0,0.2,0.1,0.2c0.2-0.1,0.4-0.2,0.7-0.2
					c0.2,0,0.4,0,0.6,0.2c-0.3,0.1-0.6,0.2-0.9,0.3c-0.4,0.1-0.7,0.1-1.1,0.1l-0.6-0.1c-0.2,0-0.4,0-0.6-0.1
					c0.4-0.1,0.9-0.3,1.3-0.5h-0.9c-0.3,0-0.5,0.2-0.5,0.4c-0.5-0.1-0.9-0.3-1.4-0.5c-0.4-0.3-0.8-0.6-1.1-1
					c0.3-0.2,0.5-0.4,0.7-0.7c0.2-0.4,0.4-0.7,0.5-1.1c0,0.2,0.1,0.4,0.1,0.6c0.1,0.2,0.1,0.4,0.2,0.6c0.1,0.2,0.2,0.3,0.3,0.5
					c0.2,0.1,0.4,0.2,0.6,0.2c0.3,0,0.5-0.1,0.7-0.2c0.2-0.2,0.4-0.4,0.6-0.6c-0.2-0.1-0.4-0.1-0.5,0c-0.1,0.1-0.2,0.1-0.3,0
					c0,0,0,0,0,0c0-0.1,0-0.3,0.1-0.4c0.1-0.1,0.2-0.1,0.3-0.2l0.3-0.1c0.1,0,0.2-0.1,0.2-0.2c-0.2-0.1-0.3,0-0.5,0.1
					c-0.1,0.1-0.3,0.1-0.5,0.1c-0.1,0-0.1,0.1-0.1,0.2c0,0.1,0,0.1,0.1,0.2c0,0.1,0.1,0.2,0,0.2c0,0.1-0.1,0.2-0.1,0.2
					c0-0.1,0-0.3,0-0.4c0-0.1-0.1-0.1-0.2-0.1c-0.1,0-0.2,0-0.2,0c-0.1,0-0.1,0-0.1-0.1c0.1-0.2,0.2-0.3,0.4-0.2c0-0.1,0-0.2,0-0.2
					c-0.1-0.1-0.1-0.1-0.2-0.1c-0.1,0-0.2-0.1-0.1-0.2c0,0,0,0,0,0c0.1,0.1,0.3,0.1,0.4,0c0.1-0.1,0.2-0.2,0.3-0.3
					c0.1-0.1,0.2-0.3,0.2-0.5c0-0.1,0-0.3,0-0.4c-0.2,0-0.4,0.1-0.6,0.1h-0.4c-0.1,0-0.3,0-0.4,0c-0.2,0-0.3,0.1-0.5,0.2v-0.9
					c-0.1,0-0.2,0-0.2,0c-0.1,0.1-0.1,0.1-0.1,0.2c0,0.1-0.1,0.2-0.2,0.2c0-0.1,0-0.1,0-0.2c0,0-0.1-0.1-0.1-0.1
					c0.4-0.3,0.8-0.7,1.2-1l1.1-1c-0.3,0-0.6,0.1-0.8,0.3c-0.2,0.2-0.5,0.4-0.7,0.6c-0.2,0.2-0.5,0.5-0.7,0.7
					c-0.3,0.2-0.6,0.4-0.9,0.4c-0.1,0.2-0.1,0.5,0,0.8c0.2,0.3,0.4,0.5,0.6,0.8c0.3,0.2,0.4,0.5,0.5,0.9c-0.2,0-0.4,0.1-0.5,0.2
					c-0.1,0.1-0.2,0.2-0.4,0.3c0.1,0.3,0.1,0.5-0.1,0.7c-0.1-0.2-0.2-0.4-0.3-0.6c-0.1-0.2-0.2-0.4-0.3-0.7c0.2-0.1,0.3-0.2,0.4-0.4
					c0.1-0.2,0.1-0.3-0.2-0.4c0,0.1,0,0.2-0.1,0.3c-0.1,0.1-0.2,0.2-0.2,0.2c-0.2-0.6-0.3-1.2-0.4-1.8c-0.1-0.8-0.1-1.6-0.1-2.3
					v-1.5c0-0.9,0.1-1.9,0.3-2.8c0.3,0.2,0.4,0.5,0.5,0.8c0.1,0.3,0.2,0.7,0.2,1.1c0.1,0,0.3,0,0.3-0.1c0.1-0.1,0.2-0.2,0.3-0.2
					c-0.2-0.1-0.3-0.4-0.2-0.6c-0.3,0-0.5,0-0.5-0.2c0.1-0.2,0-0.4-0.1-0.6c-0.1-0.2-0.3-0.5-0.4-0.7c0-0.1,0.1-0.2,0.1-0.3
					c0-0.1,0.1-0.2,0.1-0.3l0.1,0.2l0.1,0.2c-0.1,0.1-0.2,0.2-0.2,0.3c0,0.1,0,0.3,0.1,0.4c0.1,0.1,0.2,0.2,0.3,0.3
					c0.1,0.1,0.2,0.1,0.4,0.1c0-0.1-0.1-0.2-0.2-0.3c-0.1-0.1-0.1-0.2-0.2-0.3c-0.1-0.1-0.1-0.2-0.1-0.3c0-0.1,0-0.2,0.1-0.3
					l0.3,0.3c0.1,0.1,0.3,0.2,0.4,0.3c0.2-0.3,0.2-0.5,0-0.5c0,0.1,0,0.2,0,0.3c0,0.1,0,0.1-0.1,0c0-0.1-0.1-0.1,0-0.2
					c0-0.1,0-0.1,0-0.2c0,0-0.1-0.1-0.1-0.1c0-0.1-0.1-0.1,0-0.2c0.2,0.1,0.4,0.1,0.6,0.1c0.2-0.1,0.3-0.1,0.5-0.2
					c-0.1,0-0.1,0-0.2-0.1c0-0.1,0-0.1,0-0.2c0-0.1,0-0.2,0-0.2c0-0.1-0.1-0.1-0.1-0.1c-0.1,0.1-0.1,0.2-0.2,0.3
					c-0.1,0.1-0.2,0.1-0.3,0.2L41,63.9c-0.1,0.1-0.2,0.2-0.3,0.3L40.5,64c0-0.1-0.1-0.1-0.1-0.2c0.2-0.5,0.4-0.9,0.7-1.4
					c0.3-0.4,0.6-0.7,1-1c0,0,0.1,0.1,0.1,0.1c0.1,0,0.1,0,0.1,0.1c0-0.1,0-0.2-0.1-0.3c0.9-0.6,1.9-0.8,2.9-0.8
					c0.9,0,1.9,0.2,2.7,0.7c-0.1,0-0.2,0-0.3,0.2c-0.1,0.2-0.1,0.2,0,0.2c0-0.1,0.1-0.1,0.2-0.1c0.1,0,0.1-0.1,0.1-0.2l0.4,0.3
					c0.2,0.1,0.3,0.3,0.5,0.4v0.3c0.1-0.1,0.2-0.1,0.3-0.1c0.1,0,0.1,0,0.1,0.1l0.1,0.2c0,0.1,0.1,0.1,0.2,0.2
					c0-0.3-0.1-0.5-0.3-0.5c-0.2-0.1-0.3-0.2-0.5-0.3v-1.5c0.1,0,0.1,0.1,0.1,0.2c0,0.1,0,0.2,0,0.3c0.2,0,0.3,0,0.3,0
					s0.1-0.1,0.3-0.1c0,0.2,0.1,0.3,0.1,0.3c0-0.1,0-0.2,0-0.2c0-0.1-0.1-0.2-0.2-0.3c-0.1-0.1-0.2,0-0.3,0.1c0-0.2,0-0.3-0.1-0.3
					s-0.1-0.2,0-0.3c-0.1,0-0.1,0-0.2,0v-0.1l0.3,0.1l0.3,0.1c0.3-0.1,0.5-0.3,0.5-0.6c-0.2,0-0.3,0-0.3,0.1s-0.2,0.1-0.3,0
					c0.2-0.1,0.2-0.2,0.1-0.3c-0.1-0.1-0.1-0.3-0.1-0.4c0-0.4,0.1-0.8,0.3-1.1c0.1-0.3,0.2-0.6,0.2-0.9c0.1,0,0.1,0.1,0.2,0
					c0.1,0,0.2,0,0.3,0c0-0.2,0-0.4,0-0.6c0-0.1,0.1-0.3,0.2-0.5c-0.1,0-0.2,0-0.3,0.1c0,0.1-0.1,0.2-0.1,0.3c0,0.1-0.1,0.2-0.1,0.3
					c0,0.1-0.1,0.2-0.2,0.1c0-0.1,0-0.2,0-0.3s0.1-0.2,0-0.3c-0.1,0-0.2,0-0.3,0c-0.1-0.1-0.3-0.1-0.4-0.1v-1.3
					c0-0.2,0.1-0.4,0.3-0.4h0.2c-0.1,0.2-0.1,0.3,0,0.3c0.1,0,0.2-0.1,0.1-0.3h2.5c-0.1,0-0.1,0.1-0.2,0.2c0.2,0,0.4,0,0.6-0.2h1.1
					l0.4,0.2L53.9,63c-0.2,0-0.4,0.1-0.6,0.1c-0.2,0-0.4,0.2-0.4,0.3c0.1,0,0.2,0,0.2,0l0.2-0.1c0.1,0,0.1-0.1,0.2,0
					c0.1,0,0.1,0,0.2,0.1c-0.2,0-0.2,0.1-0.2,0.2c0.1,0.1,0.2,0.3,0.4,0.3v0.8c0,0-0.1-0.1-0.2-0.1c0,0.2,0.1,0.4,0.2,0.5v0.6
					c-0.1,0.1-0.3,0.1-0.4,0.2c-0.2,0.1-0.3,0.1-0.5,0.1c0,0.2,0.1,0.3,0.1,0.5c0,0.1,0.1,0.3,0.3,0.3c0,0,0,0,0,0
					c0.1,0,0.1-0.1,0.1-0.1c0-0.1,0-0.1,0-0.2l-0.1-0.2c0-0.1,0-0.1,0-0.2c0.1,0,0.2,0.1,0.3,0.1l0.3-0.1v0.5
					c-0.1,0-0.2-0.1-0.3-0.1c-0.1,0,0,0.1,0.2,0.3l0,0v0.9c-0.1,0-0.2,0-0.3,0c0,0.3,0,0.4,0.1,0.3c0-0.1,0-0.1,0.1-0.1c0,0,0,0,0,0
					l-0.1,2.6c-0.1-0.1-0.2-0.2-0.3-0.3c-0.1-0.1-0.2-0.2-0.3-0.4c0.1,0,0.2,0,0.2-0.1c0-0.1,0-0.2,0-0.3c0-0.1-0.1-0.2-0.2-0.3
					c-0.1-0.1-0.1-0.1-0.2-0.1c0-0.2,0-0.2,0.2-0.2s0.2,0,0.2-0.2s-0.1-0.1-0.1-0.1c0,0-0.1,0-0.1-0.1c0,0-0.1-0.1-0.1-0.1
					c-0.1,0.3-0.2,0.6-0.4,0.9c-0.4,0-0.7-0.1-1-0.2c0,0.2,0,0.3,0.1,0.4c0.1,0.1,0.3,0.1,0.4,0.1h0.4c0.1,0,0.2,0,0.3,0.1
					c-0.1,0.2-0.1,0.3-0.3,0.4c-0.1,0.1-0.1,0.3,0,0.4c0,0,0,0,0,0c0.3-0.3,0.5-0.3,0.7-0.2c0.2,0.2,0.4,0.4,0.5,0.6v0.7
					c0,0-0.1,0.1-0.1,0.2c0-0.1-0.1-0.1-0.1-0.2c-0.1,0-0.1,0-0.2,0c-0.1,0-0.1,0-0.2,0c-0.1,0-0.1,0-0.1-0.1s0-0.2,0.1-0.2
					c0.1-0.1,0.1-0.1,0.2-0.2c0,0,0-0.1-0.2-0.2s-0.4,0.3-0.4,0.8c-0.1-0.1-0.2-0.1-0.2-0.1c-0.1,0-0.1,0-0.2,0.1
					c-0.1,0.1-0.1,0.1-0.2,0.1c-0.1,0-0.2,0-0.3,0c0,0.3-0.2,0.6-0.5,0.8c-0.3,0.2-0.6,0.1-0.8-0.1c-0.1,0.1-0.2,0.2-0.3,0.3
					c0,0.1,0,0.3,0,0.4c0,0.2,0.1,0.3,0.2,0.4l0.2,0.4c-0.1,0.1-0.2,0.2-0.1,0.2c0.1,0.2,0.3,0.4,0.5,0.6c0.2,0.2,0.4,0.2,0.5,0
					c0,0.1,0.1,0.3,0.2,0.4c0.1,0.2,0.1,0.4,0,0.5c0.1,0,0.3,0.1,0.4,0.1c0.1,0,0.3,0,0.5,0c-0.1-0.2-0.1-0.4-0.2-0.6
					c-0.1-0.2-0.2-0.3-0.4-0.5c-0.1-0.1-0.3-0.2-0.5-0.3c-0.1,0-0.3,0-0.4,0.1c0-0.1-0.1-0.3-0.2-0.4C51,74.2,51,74,51,73.9
					c0.1,0,0.3-0.1,0.5-0.3c0.2-0.2,0.4-0.3,0.6-0.2c-0.1-0.2-0.1-0.4-0.1-0.6c0-0.1,0.1-0.2,0.2-0.2c0.1-0.1,0.3-0.1,0.4-0.1
					c0.2,0,0.3-0.1,0.5-0.2c0.1,0.1,0.1,0.3,0.1,0.5c0,0.2-0.1,0.4-0.1,0.5c0.1,0,0.2-0.1,0.3-0.2c0-0.1,0.1-0.2,0.1-0.3v-0.3
					c0-0.1,0-0.2,0.1-0.3c0,0.1,0.1,0.3,0.2,0.4L53.6,76.3z M40.2,71.6h-0.2v0.3h0.2V71.6z M41.1,66c0.3,0.2,0.5,0.2,0.6,0.1
					l0.5-0.4c-0.1,0-0.2-0.1-0.2-0.1h-0.2c0,0,0-0.1,0-0.2c-0.1,0-0.3,0-0.3-0.1c0,0.1-0.1,0.1-0.1,0.2c0,0.1,0,0.1,0,0.2
					c0,0,0,0.1,0,0.1C41.2,65.9,41.2,66,41.1,66z M41.3,70.8c0.2,0,0.3-0.1,0.5-0.2c0.1-0.1,0.2-0.3,0.1-0.6h-0.5
					c0.1,0.1,0.1,0.3,0,0.4C41.4,70.6,41.3,70.7,41.3,70.8L41.3,70.8z M41.7,66.5c0,0.3,0.2,0.6,0.4,0.6c0.1-0.1,0.1-0.3,0-0.4
					C42,66.6,41.9,66.5,41.7,66.5z M42.1,69.2c0-0.1,0-0.1,0-0.2c0,0,0.1-0.1,0-0.1c0,0-0.1,0-0.1-0.1c0,0-0.1-0.1-0.1-0.1
					c0,0,0,0.1,0,0.1c0,0-0.1,0.1-0.1,0.1C41.9,69,42,69.1,42.1,69.2C42,69.1,42.1,69.2,42.1,69.2L42.1,69.2z M42.4,73.5
					c0.2-0.2,0.2-0.3,0-0.4c-0.1-0.1-0.3-0.2-0.4-0.2c0.2-0.2,0.5-0.3,0.8-0.3c-0.1,0.1-0.1,0.3,0,0.3c0.1,0.1,0.2,0.3,0.1,0.4
					C42.7,73.5,42.5,73.5,42.4,73.5L42.4,73.5z M42.2,62.4c0.1,0,0.2,0,0.2,0c0-0.1,0-0.1-0.1-0.2L42.2,62c0-0.1-0.1-0.1-0.1-0.2
					c0,0.2,0,0.3,0,0.3S42.3,62.3,42.2,62.4L42.2,62.4z M42.2,75.9c0.1,0.1,0.2,0.1,0.3,0c0.1,0,0.1-0.1,0.1-0.2c0,0,0-0.1-0.1-0.1
					S42.4,75.7,42.2,75.9L42.2,75.9z M42.6,63.4h-0.2v0.2h0.2V63.4z M42.5,62.7c0,0.3,0,0.5,0.2,0.7c0.2,0.1,0.4,0.2,0.7,0.3
					c-0.1-0.3-0.1-0.5-0.1-0.5c0-0.1,0-0.1,0-0.1l0,0.1c0,0.1-0.1,0.1-0.2,0.1c-0.1,0-0.1,0-0.1,0c0,0,0,0,0,0c0-0.1,0-0.2-0.1-0.2
					c0-0.1,0-0.1-0.1-0.2C42.7,62.7,42.6,62.6,42.5,62.7L42.5,62.7z M42.9,71.8c0-0.1,0.1-0.1,0.1-0.1s0.1,0,0.2-0.1
					S43,71.6,43,71.5c0-0.1,0-0.2,0-0.3c0,0-0.1,0-0.2,0c0.1,0.2,0.1,0.3,0,0.4S42.7,71.8,42.9,71.8L42.9,71.8z M43.5,68.4
					c0-0.2,0-0.3,0-0.3s0.1-0.2,0-0.3c-0.1,0-0.1,0-0.2-0.1l-0.1-0.1c0,0-0.1-0.1-0.2-0.1c-0.1,0-0.2,0-0.3,0
					c0.1,0.2,0.2,0.3,0.3,0.5C43.3,68.1,43.4,68.2,43.5,68.4L43.5,68.4z M43,72.9c0-0.1,0-0.2-0.1-0.3c0,0,0,0,0,0
					c0.1-0.1,0.2-0.1,0.4-0.1c0.2,0,0.4,0.1,0.5,0.1c0,0.1-0.1,0.2-0.1,0.2c-0.1,0-0.1,0-0.2,0h-0.2C43.2,72.8,43.1,72.8,43,72.9z
					 M48.8,71.9c0,0.1,0,0.2,0,0.3c0.1,0.1,0.1,0.1,0.2,0.2c0.1,0,0.2,0.1,0.3,0.1c0.1,0,0.2,0,0.3,0.1c0.5-0.1,1-0.4,1.3-0.9
					c0.3-0.4,0.5-0.8,0.5-1.3c0.1,0.1,0.1,0.2,0.2,0.4c0,0.1,0.2,0.2,0.4,0.2c-0.1-0.2-0.2-0.4-0.3-0.5c-0.1-0.1-0.2-0.3-0.2-0.5
					c-0.1,0.1-0.2,0.2-0.3,0.3c-0.2,0.1-0.4,0.2-0.5,0.1c0-0.2,0-0.4-0.1-0.5c-0.1-0.1-0.2-0.1-0.3-0.2c0,0.2,0.1,0.4,0.2,0.6
					c0.1,0.1,0.2,0.3,0.4,0.4c0.1,0.1,0.2,0.2,0.3,0.4c0,0.2,0,0.4-0.1,0.6l-0.3,0.1h-0.3c-0.1,0-0.1,0-0.2,0.1c0,0.1,0,0.2,0.1,0.3
					c-0.1-0.1-0.3-0.2-0.4-0.1c-0.2,0.1-0.4,0.1-0.5,0.1c-0.1-0.1-0.3-0.3-0.3-0.5c-0.1-0.2-0.2-0.4-0.3-0.6c0-0.1,0-0.2,0-0.4
					s0-0.3,0-0.6c0.1-0.1,0.1-0.1,0.1-0.2c0-0.1,0-0.1-0.1-0.1v-0.4c0.2,0,0.4-0.1,0.6-0.2c-0.2-0.1-0.4-0.2-0.6-0.2v-1
					c0-0.5,0-0.9,0-1.4c0-0.4-0.2-0.8-0.5-1.1c0.1,0,0.2-0.1,0.4-0.1c0.1,0,0.2,0,0.3-0.2c-0.2,0-0.3-0.1-0.5-0.1h-0.5
					c-0.3-0.2-0.5-0.2-0.8-0.2h-0.3c0.1-0.1,0-0.2-0.1-0.2c-0.1,0.1-0.2,0.2,0,0.3c-0.4,0.1-0.8,0.3-1,0.7c0,0,0,0-0.1,0s0,0-0.1,0
					h0.1c-0.2,0.4-0.4,0.8-0.5,1.2c-0.1,0.5-0.2,1.1-0.2,1.6v0.1c-0.1,0-0.2,0-0.2,0c0,0.2,0.1,0.3,0.1,0.3c0,0.1-0.1,0.1-0.2,0.2
					c0.1,0.1,0.3,0.2,0.3,0.3c0,0.9,0,1.5,0,1.7c-0.3,0.1-0.7,0.3-1,0.4c-0.3,0.1-0.6,0.4-0.7,0.7l0.9-0.4c0.3-0.1,0.6-0.3,0.8-0.5
					c0,0.3,0.1,0.7,0.3,1c-0.1,0.1-0.1,0.1-0.1,0.2c0.1,0.1,0.2,0.1,0.2,0.1c0.3,0.4,0.9,0.6,1.4,0.6c0.7,0,1.3-0.4,1.6-1
					c0.1,0,0.1-0.1,0.2-0.2C48.6,71.8,48.7,71.8,48.8,71.9L48.8,71.9z M44,64.4h-0.3c-0.1,0-0.1,0.1-0.1,0.2
					C43.8,64.6,43.9,64.5,44,64.4z M43.6,66.8c0,0.3,0.1,0.4,0.4,0.3C44,66.8,43.9,66.7,43.6,66.8L43.6,66.8z M44,73.3
					c0.1,0.1,0.2,0.1,0.2,0.1c0.1,0,0.1-0.1,0.1-0.1c0-0.1,0-0.1-0.1-0.1C44.2,73.2,44.1,73.2,44,73.3z M44.4,67.8
					c0,0.1,0,0.3,0.1,0.4c0.1,0.1,0.1,0.1,0.1,0s0-0.1,0-0.2C44.6,67.9,44.5,67.8,44.4,67.8L44.4,67.8z M45.4,73.8
					c-0.1,0-0.2,0-0.3,0c-0.1,0-0.1,0.1-0.1,0.2C45.2,74,45.3,73.9,45.4,73.8L45.4,73.8z M45.1,74.7c0,0.1,0,0.3,0.1,0.4
					c0.1,0.2,0.2,0.1,0.3-0.1c-0.1,0-0.2-0.1-0.1-0.2S45.4,74.6,45.1,74.7L45.1,74.7z M45.6,61.4c0.1,0,0.1,0,0.2,0l0.1,0.1
					c0-0.1,0-0.2,0-0.3S45.8,61,45.6,61V61.4z M45.9,62c0,0.2,0,0.3,0,0.3c0,0,0.1,0,0.1,0c0,0,0.1-0.1,0-0.2
					C46.1,62,46.1,62,45.9,62L45.9,62z M46.8,62.5c0.1,0.1,0.1,0.3,0.1,0.4c0,0.2,0.1,0.2,0.3,0.2c0-0.1-0.1-0.2-0.1-0.3
					c0-0.1,0-0.2,0.1-0.3L46.8,62.5z M48.3,62.4c-0.1,0.1-0.2,0.1-0.3,0c-0.1-0.1-0.2-0.2-0.2-0.4c-0.1-0.1-0.2-0.2-0.3-0.3
					c-0.1-0.1-0.3-0.2-0.4-0.2c0,0.2,0.1,0.3,0.3,0.5c0.2,0.1,0.3,0.2,0.3,0.4c-0.2,0.6,0,1.3,0.5,1.8c0-0.1,0-0.1,0-0.2
					c0-0.1,0.1-0.1,0.2,0s0,0.1-0.1,0.2s-0.1,0.2-0.1,0.2s0,0.1,0.1,0.1s0.1-0.1,0.1-0.1c0,0.1,0.1,0.1,0.2,0.2
					c-0.1-0.1-0.1-0.3-0.1-0.4c0-0.1,0-0.2,0.1-0.3c0-0.1,0.1-0.2,0-0.3c0-0.1-0.1-0.3-0.2-0.4c-0.1,0.1-0.2,0.1-0.1,0.2
					c0,0.1,0.1,0.1,0.1,0.2c0,0,0.1,0.1,0.1,0.2c0,0,0,0.1-0.1,0.1c-0.1-0.1-0.2-0.1-0.3-0.2c-0.1,0-0.2-0.1-0.2-0.2
					c0.1-0.1,0.2-0.2,0.1-0.3c-0.1-0.1-0.1-0.2-0.1-0.3C48.2,62.8,48.3,62.7,48.3,62.4L48.3,62.4z M47.6,64.3c0,0.1,0,0.2,0,0.2
					c0,0.1,0,0.2,0,0.2c0,0.1,0,0.1,0,0.2c0,0,0.1,0,0.2,0C47.8,64.5,47.7,64.3,47.6,64.3L47.6,64.3z M47.9,74.3h-0.3v0.2h0.3V74.3z
					 M49.1,73.6c0.1-0.1,0-0.3-0.1-0.4c-0.1-0.1-0.2-0.2-0.3-0.2c0,0.1,0.1,0.3,0.1,0.4C48.9,73.5,49,73.6,49.1,73.6L49.1,73.6z
					 M49.1,65.5c0,0.1,0,0.2,0,0.2c0,0-0.1,0-0.1,0.1c-0.1,0-0.1,0-0.1,0.1c0,0,0,0.1,0,0.2l1.3,0.3c0.4,0.1,0.8,0.1,1.2-0.1
					c-0.2-0.1-0.4-0.1-0.6-0.1L50.2,66c-0.2,0-0.4-0.1-0.6-0.2C49.4,65.8,49.2,65.6,49.1,65.5L49.1,65.5z M48.9,59.5l0.1-3.4
					c0.2,0,0.3,0.1,0.2,0.2c-0.1,0.3-0.1,0.6-0.1,0.9c0,0.3,0,0.5,0,0.8s0,0.5,0,0.8C49.2,58.9,49.1,59.2,48.9,59.5L48.9,59.5z
					 M49.3,64c0-0.1,0-0.2,0-0.3c0-0.1-0.1-0.1-0.2-0.1c-0.1,0-0.1,0-0.1,0.1S49.2,63.8,49.3,64z M49.8,65.3c-0.1,0-0.2-0.1-0.2-0.1
					c-0.1,0-0.2,0-0.3,0c0,0.1,0,0.2,0,0.2c0.1,0,0.1,0.1,0.2,0.1c0.1,0,0.1,0,0.2,0C49.8,65.3,49.8,65.3,49.8,65.3L49.8,65.3z
					 M49.3,55.5c0.1,0,0.2,0,0.2-0.1c0.1-0.1,0.1-0.2,0.1-0.2c0-0.1,0-0.2,0-0.3c0-0.1-0.1-0.1-0.2-0.1c0.1,0.1,0.1,0.3,0,0.4
					C49.4,55.2,49.3,55.3,49.3,55.5L49.3,55.5z M50.3,73.9c0-0.1,0-0.2,0-0.2c-0.1,0-0.2,0-0.3,0c-0.1,0-0.2,0-0.2-0.1
					s0-0.1,0.1-0.1l0.2-0.1c0,0,0.1,0,0.1-0.1c0,0,0-0.1-0.2-0.1c0,0.1-0.1,0.2-0.3,0.2c-0.1,0-0.3,0-0.4-0.1c-0.1,0.2,0,0.3,0,0.3
					c0.1,0,0.2,0.1,0.2,0.2c-0.1,0-0.1,0.2-0.1,0.2c0.1,0,0.2,0,0.3-0.1C50,73.9,50.2,73.8,50.3,73.9L50.3,73.9z M50.7,64.5
					c-0.2-0.1-0.3-0.2-0.5-0.3c-0.2-0.1-0.4-0.1-0.5,0c0,0.3,0.3,0.5,0.5,0.5C50.5,64.7,50.7,64.7,50.7,64.5L50.7,64.5z M49.8,74.7
					c0,0.2,0,0.3,0,0.3c0,0,0.1,0,0.1,0c0-0.1,0.1-0.1,0-0.2C50,74.7,50,74.7,49.8,74.7L49.8,74.7z M50.3,58.7c0-0.2,0-0.3-0.2-0.3
					s-0.2,0-0.2,0.2C50.1,58.5,50.2,58.6,50.3,58.7L50.3,58.7z M50.4,60.4c0.2-0.1,0.3-0.2,0.3-0.4c0.1-0.2,0-0.3-0.2-0.5
					c0,0.1-0.1,0.2-0.2,0.1s-0.2,0-0.3,0.1s0,0.3,0.1,0.5S50.3,60.3,50.4,60.4L50.4,60.4z M50.7,64c0-0.1,0-0.3-0.1-0.4
					s-0.2-0.2-0.1-0.4h-0.4c0,0.2,0.1,0.3,0.3,0.5C50.5,63.8,50.6,63.9,50.7,64z M52.1,66.3c-0.2,0-0.4-0.1-0.5-0.3l-0.5-0.3
					c-0.1-0.1-0.3-0.2-0.5-0.2c-0.2,0-0.4,0-0.6,0.2c0.2-0.1,0.4,0,0.6,0.1c0.2,0.1,0.3,0.2,0.5,0.3c0.1,0.1,0.3,0.2,0.5,0.3
					C51.8,66.3,51.9,66.3,52.1,66.3L52.1,66.3z M50.5,57.3c0,0.2,0,0.3,0,0.3c0,0,0.1,0,0.1,0c0,0,0.1-0.1,0-0.2
					C50.7,57.3,50.6,57.2,50.5,57.3L50.5,57.3z M51,61.4c0,0.1,0,0.2,0,0.3c0,0.1-0.1,0.1-0.1,0.1c0,0-0.1,0.1-0.1,0.1
					c0,0.1-0.1,0.1,0,0.2c0.6-0.1,0.9-0.3,0.9-0.5c-0.1,0-0.2-0.1-0.3-0.2C51.3,61.3,51.2,61.2,51,61.4L51,61.4z M50.8,63.5
					c-0.1,0.1-0.1,0.2,0,0.3c0.1,0.1,0.1,0.1,0.2,0.1c0.1,0,0.2,0,0.2,0c0.1-0.1,0.1-0.2,0.1-0.2c0-0.1-0.1-0.2-0.2-0.1
					C51.1,63.5,51,63.5,50.8,63.5L50.8,63.5z M51.4,64.8c0.1,0.1,0.3,0.2,0.4,0.3c0.1,0.1,0.3,0.3,0.4,0.4l0.4,0.3
					c0.1,0.1,0.2,0.1,0.3,0.1c-0.1-0.1-0.2-0.3-0.3-0.4c-0.1-0.1-0.2-0.2-0.3-0.4c0-0.1,0-0.2,0.1-0.3c-0.2,0.1-0.4,0.1-0.6,0
					c-0.2-0.1-0.3-0.2-0.5-0.3c-0.1-0.1-0.2-0.2-0.3-0.2c-0.1,0-0.2,0-0.2,0.1c0.1,0,0.2,0,0.2,0.1s0,0.1,0,0.1
					c-0.1,0.1-0.1,0.1-0.2,0.2c0.1,0,0.2,0,0.2,0.1s0.1,0.1,0.2,0.1s0.1-0.1,0.1-0.1S51.3,64.8,51.4,64.8L51.4,64.8z M51.6,72.3
					c-0.1-0.1-0.2-0.2-0.1-0.2c0.1-0.1,0.1-0.1,0.2-0.2c0.1-0.1,0.2-0.2,0.2-0.2c0.1-0.1,0.1-0.2,0.1-0.3c-0.2,0-0.3,0-0.3,0.1
					c-0.1,0.1-0.1,0.2-0.1,0.3c0,0.1-0.1,0.1-0.1,0.2c0,0-0.2,0-0.3-0.1c0,0.1,0,0.2,0,0.3c0,0.1-0.1,0.2-0.1,0.2c0,0.1,0,0.1,0,0.2
					c0,0.1,0,0.1,0.1,0.1c0-0.2,0-0.2,0.2-0.2S51.6,72.3,51.6,72.3L51.6,72.3z M51.2,60.8c0,0.1,0,0.1,0,0.1c0,0-0.1,0.1-0.1,0.1
					c0.1,0,0.2,0,0.2,0.1s0.1,0.1,0.2,0C51.5,61,51.4,60.9,51.2,60.8L51.2,60.8z M51.1,73.2c0-0.2,0.2-0.3,0.5-0.3
					C51.6,73.2,51.4,73.3,51.1,73.2z M51.2,58.6c-0.1,0.1-0.2,0.2-0.1,0.3c0.1,0,0.1,0,0.2,0c0.1,0,0.1-0.1,0.1-0.1
					C51.5,58.7,51.4,58.7,51.2,58.6z M51.4,60c0-0.1,0-0.1,0-0.2l0.1-0.2c0-0.1,0-0.1,0-0.2c0,0-0.1,0-0.2,0c0,0.1,0,0.3,0,0.4
					C51.2,60,51.2,60,51.4,60L51.4,60z M51.9,61c0-0.2-0.1-0.4-0.2-0.5c-0.1-0.1-0.2-0.3-0.3-0.4c-0.2,0.1-0.2,0.3-0.1,0.5
					c0,0,0,0,0,0C51.5,60.9,51.7,61,51.9,61L51.9,61z M52.9,68.3c0-0.1,0-0.3,0-0.4c0-0.1-0.1-0.2-0.2-0.2c0,0.1,0,0.2,0,0.2
					c0,0.1-0.1,0.1-0.2,0.1c-0.1,0-0.2,0-0.2,0c-0.1,0-0.1-0.1-0.2-0.1c0.1,0,0.2,0,0.3-0.1c0.1-0.1,0.1-0.1,0.2-0.2
					c0-0.1,0.1-0.1,0.2-0.2c0.1-0.1,0.2-0.1,0.3-0.1c0-0.1-0.1-0.2-0.1-0.4c0-0.1-0.1-0.2-0.2-0.3c0,0.2-0.1,0.4-0.2,0.6
					c-0.1,0.2-0.3,0.4-0.4,0.5l-0.4,0.5c-0.1,0.1-0.2,0.3-0.2,0.4c0.2-0.2,0.5-0.3,0.7-0.4c0,0.3,0,0.4,0,0.4l0.1-0.2
					c0-0.1,0.1-0.2,0.2-0.3C52.6,68,52.7,68.1,52.9,68.3L52.9,68.3z M51.9,59.6c0-0.1,0-0.3,0-0.4c0-0.1-0.1-0.2-0.2-0.1
					C51.6,59.4,51.7,59.6,51.9,59.6L51.9,59.6z M52,60h0.2v-0.2H52V60z M52,76.5c0.1,0,0.2,0,0.2,0c0.1,0,0.1,0,0.2-0.1
					c-0.1,0-0.2,0-0.3-0.1c0-0.1-0.1-0.1-0.1-0.2L52,76.5z M52.7,64c0-0.2,0-0.4-0.2-0.4s-0.3,0.1-0.3,0.2c0.1,0,0.2,0,0.2,0
					C52.6,64,52.7,64,52.7,64z M53.5,59.2c-0.3,0-0.6,0.2-0.7,0.5c-0.2,0.2-0.3,0.5-0.4,0.8c0.2-0.2,0.5-0.4,0.6-0.6
					C53.2,59.6,53.3,59.4,53.5,59.2L53.5,59.2z M53.6,77c-0.1-0.1-0.1-0.2-0.2-0.2l0.1-0.1l0.1-0.1L53.6,77L53.6,77z"/>
				<path class="st1" d="M62.1,76.9l-4.6-0.1L57,76.5v-1c0.3-0.2,0.5-0.4,0.7-0.7c0.2-0.2,0.3-0.5,0.2-0.8c0,0.1-0.1,0.1-0.2,0.1
					s-0.2,0-0.3,0.1c0.1,0.2,0.1,0.4,0,0.6c-0.1,0.2-0.2,0.3-0.3,0.4V73c0.1,0,0.3,0.1,0.4,0.1c0.1,0,0.2,0,0.2-0.2
					c-0.1,0-0.2,0-0.4,0c-0.1,0-0.1,0-0.2,0v-0.3l0.1-0.1l0.1-0.1c0-0.2,0-0.4,0.1-0.6c0.1-0.2,0.2-0.4,0.3-0.5s0.2-0.3,0.2-0.5
					c0.1-0.2,0.1-0.3,0-0.5c-0.2,0.5-0.5,0.9-0.9,1.3l0.1-7.8c0.1,0,0.2,0,0.3,0.1c0-0.1,0-0.2,0-0.2c0,0,0.1-0.1,0.2-0.1l0.2,0
					c0.1,0,0.1-0.1,0.1-0.1c-0.1,0-0.2,0-0.2,0c0-0.1-0.1-0.1-0.1-0.2l0-0.2c0-0.1-0.1-0.1-0.1-0.1c-0.1,0-0.2,0-0.3,0v-1.2
					c0.1-0.2,0.1-0.5,0-0.8v-0.1l5,0.1c0.1,0,0.2,0.1,0.1,0.2l-0.1,4.2c0,0.1,0,0.2-0.1,0.2h0.1v4.1c-0.1,0.1-0.2,0.2-0.3,0.3
					l0.2,0.1l0.1,0.1l-0.1,3.8L61.9,74c-0.1,0-0.1,0.1-0.1,0.2c0.1,0,0.3-0.1,0.3-0.2L62.1,76.9z M57.2,63.2
					c0.2,0.1,0.2,0.2,0.2,0.4c-0.1,0-0.1,0-0.2-0.1V63.2z M62,55.7c-0.2-0.1-0.4-0.3-0.4-0.6l-0.1-0.8h0.8c0.2,0,0.2,0,0.2,0.2
					l-0.1,4c-0.1,0.2-0.1,0.3-0.3,0.5h-0.8l-0.2-0.2v0.2h-3c0-0.2,0.1-0.5,0.2-0.7c-0.2,0.2-0.4,0.4-0.5,0.7h-0.5l-0.2-0.1l0.1-3.5
					l0,0c0-0.1,0-0.2,0.1-0.2c0.1-0.1,0-0.1-0.1-0.2c0,0,0,0,0,0.1v-0.7l0.2-0.1H58v0.2c0-0.1-0.1-0.1-0.2-0.1c-0.1,0-0.1,0-0.2,0.1
					c-0.1,0-0.1,0.1-0.1,0.2c0,0.1,0,0.2,0.2,0.2c0,0,0-0.1,0-0.1c0,0,0.1-0.1,0.2-0.1c0.1,0,0.1,0,0.2,0c0.1,0,0.1,0.1,0.1,0.1
					c-0.1,0.1-0.2,0.2-0.3,0.2c-0.1,0-0.3,0-0.4,0.1c0,0.1,0,0.2-0.1,0.3l-0.1,0.2c0,0,0,0.1,0,0.2c0.1,0.1,0.2,0.1,0.3,0.2
					c0.1-0.2,0.2-0.3,0.3-0.5c0.1-0.2,0.2-0.3,0.3-0.4c0.1,0.1,0.1,0.1,0.2,0.2c0,0.1,0,0.1,0,0.2c0,0,0,0.1,0,0.1
					c0,0.1,0.1,0.1,0.2,0.1c0-0.1,0.1-0.2,0.1-0.2c0,0,0,0,0,0c0.1,0,0.1-0.1,0.1-0.3c-0.2,0-0.3-0.1-0.4-0.2
					c-0.1-0.2-0.2-0.4-0.2-0.6h0.4c0,0.2,0,0.3,0.2,0.4c0.1-0.1,0.2-0.3,0.2-0.4h1c-0.1,0.1-0.3,0.2-0.4,0.1c-0.2,0-0.3,0.1-0.4,0.3
					c0.1,0,0.2,0,0.2,0l-0.1,0.1c-0.1,0.1-0.1,0.2-0.1,0.2c-0.1,0.1-0.1,0.2,0,0.3c0.1,0.1,0.3,0.1,0.5,0c0.2-0.1,0.3,0,0.3,0.1
					c0,0.3,0,0.5-0.1,0.8c0,0.3-0.1,0.6,0,0.9c0.2-0.1,0.3-0.2,0.3-0.2s0.1,0.1,0.2,0.3c0.1,0.1,0.2,0.2,0.3,0.3
					c0-0.2,0.1-0.4,0.2-0.6c0-0.2,0.1-0.3,0.1-0.5c0-0.1,0-0.3,0-0.4c0-0.2,0-0.3-0.1-0.4c0.1,0.1,0.3,0.2,0.5,0.2
					C61.8,56,61.9,55.9,62,55.7L62,55.7z M57.3,70.7c0.2,0,0.3,0,0.3-0.2c0-0.1,0.1-0.3,0.2-0.3c-0.1,0-0.2,0-0.1-0.1h-0.2
					c0,0.2,0,0.3,0,0.3S57.3,70.5,57.3,70.7L57.3,70.7z M58.3,66.5l-0.4,1c-0.1,0.3-0.3,0.7-0.5,1c0.1,0,0.1,0.1,0.1,0.3
					s0.2,0,0.2-0.1c0-0.1,0.1-0.1,0.1-0.2c0-0.1,0.1-0.1,0.1-0.1c0.1,0,0.2,0,0.2,0c0-0.1,0-0.2,0-0.2L58,68l-0.2-0.1
					c0,0,0-0.1,0-0.2s0.3,0,0.3,0.1s0.1,0,0.2-0.1c0-0.2,0.1-0.4,0.1-0.7C58.5,66.8,58.4,66.6,58.3,66.5L58.3,66.5z M58.1,73.7
					c0-0.1,0-0.1,0-0.1c0,0,0.1-0.1,0.1-0.1c-0.3-0.2-0.5-0.2-0.5,0s0.1,0.1,0.1,0.2H58.1z M58,57h-0.2v0.2H58V57z M57.8,70
					c0.1,0,0.2,0,0.2,0s0.1,0.1,0.1,0c-0.1,0-0.2-0.1-0.1-0.2c0-0.1,0.1-0.2,0.1-0.2c0.1-0.1,0.1-0.1,0.1-0.2c0-0.1-0.1-0.1-0.2-0.2
					c0,0.1-0.1,0.2-0.2,0.3C57.8,69.6,57.8,69.8,57.8,70L57.8,70z M58.2,72.7C58.1,72.8,58,72.9,58,73c0,0.1,0,0.1,0.1,0.1
					c0,0,0,0,0,0c0.1,0,0.1,0,0.2-0.1C58.3,72.9,58.3,72.8,58.2,72.7L58.2,72.7z M60.2,74.6c0-0.1,0-0.2,0.1-0.3l0.3-0.3
					c0.1-0.1,0.2-0.2,0.2-0.4c-0.2-0.1-0.3-0.3-0.2-0.4c0.1-0.2,0.1-0.5,0-0.7c0.2-0.1,0.3-0.2,0.5-0.3c0.2-0.1,0.3-0.3,0.2-0.6
					c-0.1,0-0.2-0.1-0.2-0.1c-0.1,0-0.2,0-0.3,0c0,0.1,0,0.2,0,0.3c0,0.1-0.1,0.3-0.1,0.4c0,0.1-0.1,0.2-0.2,0.2
					c-0.1,0-0.2,0-0.3-0.2c-0.2,0.4-0.4,0.7-0.6,1.1c-0.2,0.3-0.6,0.6-1,0.7c0.1-0.1,0.1-0.2,0.1-0.2s-0.1-0.1-0.1-0.3
					c0-0.2,0.2-0.3,0.3-0.4c0-0.2-0.1-0.3-0.1-0.5c0-0.2-0.2-0.3-0.4-0.2c0,0.3,0,0.7-0.1,1c-0.1,0.4-0.2,0.7-0.3,1.1
					c0.3,0,0.4,0,0.3,0.1c-0.1,0.1-0.1,0.2-0.2,0.3c0.3,0,0.5-0.2,0.6-0.4l0.4-0.6c0,0.1,0,0.1,0,0.1c0,0,0.1,0.1,0,0.1
					c0,0-0.1,0-0.1,0.1c0,0,0,0.1,0.1,0.1s0.2-0.1,0.4,0s0.3,0.1,0.4,0.1c0,0.1,0,0.1,0,0.2c0,0,0,0.1,0,0.1
					C60.1,74.4,60.1,74.5,60.2,74.6L60.2,74.6z M58.2,55.7c0-0.1,0-0.2,0.1-0.2c0.1-0.1,0-0.1-0.1-0.2c0,0.1-0.1,0.1-0.1,0.2
					C58.2,55.5,58.2,55.6,58.2,55.7L58.2,55.7z M58.5,75.7c0.2,0.1,0.3,0,0.3-0.2s0-0.4-0.1-0.4c-0.1,0.1-0.1,0.2-0.1,0.3
					C58.7,75.5,58.6,75.6,58.5,75.7L58.5,75.7z M59,68.2c0.1,0.1,0.1,0.2,0,0.3c-0.1,0.1-0.1,0.2-0.2,0.2c-0.1,0-0.1,0.1-0.1,0.2
					c0,0.1,0.1,0.1,0.3,0.1c0-0.1,0.1-0.1,0.1-0.2c0-0.1,0.1-0.2,0.1-0.3c0-0.1,0-0.2,0-0.3C59.1,68.2,59.1,68.2,59,68.2z M59,62.6
					c0.1-0.1,0.1-0.2,0.1-0.3c0-0.1-0.1-0.2-0.2-0.2c0,0.1,0,0.2,0,0.3C58.9,62.5,58.9,62.6,59,62.6C59,62.6,59,62.6,59,62.6z
					 M58.9,63c-0.1,0.1,0,0.3,0.1,0.4c0.1,0.1,0.2,0.1,0.3-0.1c-0.1,0-0.2-0.1-0.2-0.1C59,63.1,59,63,58.9,63L58.9,63z M58.9,72.3
					c0.1-0.1,0.2-0.2,0.2-0.2c0.1-0.1,0.2-0.2,0.2-0.4c0.1-0.1,0.1-0.2,0.1-0.4c0-0.1-0.1-0.2-0.2-0.3C59,71.2,58.8,71.6,58.9,72.3
					L58.9,72.3z M59.9,57c-0.2-0.1-0.4-0.1-0.5-0.2c-0.2,0-0.3-0.1-0.5-0.2c0,0.1,0,0.2,0.1,0.3c0.1,0.1,0.2,0.1,0.3,0.2
					c0.1,0,0.2,0.1,0.3,0C59.8,57.1,59.8,57.1,59.9,57L59.9,57z M59,57.4c0,0.1,0,0.1,0,0.2c0,0,0.1,0.1,0.2,0.1c0.1,0,0.1,0,0.2,0
					c0.1,0,0.1-0.1,0-0.1c-0.1,0-0.1,0-0.2-0.1C59.2,57.5,59.1,57.4,59,57.4L59,57.4z M60,57.5c-0.1,0-0.3,0-0.4,0c0,0,0,0,0,0.1
					c0.1,0,0.1,0.1,0.2,0C59.9,57.7,60,57.6,60,57.5L60,57.5z M59.9,70.1c0.1,0,0.1,0.1,0.2,0c0,0,0.1-0.1,0.1-0.1
					c0-0.1,0-0.1,0-0.2c0-0.1-0.1-0.1-0.1-0.1s0,0.1-0.1,0.1L59.9,70.1z M60.5,56.3c0-0.2,0-0.5,0-0.7c0-0.2,0.1-0.4,0.2-0.5
					c0.1,0.1,0.2,0.1,0.3,0.1c-0.2,0.5-0.3,0.9-0.3,1C60.7,56.2,60.6,56.3,60.5,56.3L60.5,56.3z M61,68.3c-0.1,0-0.2,0-0.3-0.1
					c-0.1,0-0.1,0-0.2,0.2C60.7,68.6,60.9,68.6,61,68.3z M61,55c-0.1,0-0.2-0.2-0.2-0.3c0-0.2-0.1-0.3-0.1-0.5h0.4
					c0,0.1,0.1,0.2,0.1,0.3c0,0.1,0,0.2,0.1,0.3C61.1,54.9,61.1,54.9,61,55C61.1,54.9,61,55,61,55z M61.1,74c-0.2,0-0.3,0-0.3,0
					s0,0,0.2,0.1c0.1,0,0.2,0,0.3,0c0.1,0,0.2,0,0.2-0.1c-0.1,0-0.1,0-0.2-0.1C61.3,73.9,61.2,74,61.1,74L61.1,74z M61.3,73.5
					c0-0.1,0-0.1,0.1-0.1c0,0,0,0,0,0c0.1,0,0.1-0.1,0.1-0.1c-0.1-0.1-0.2-0.2-0.3-0.3c-0.1-0.1-0.2-0.2-0.4-0.1
					c0,0.2,0,0.4,0.1,0.4C61.1,73.4,61.2,73.5,61.3,73.5L61.3,73.5z M61.1,70.3c0-0.1,0-0.2,0-0.3c0-0.1-0.1-0.1-0.2-0.1v0.2
					c0,0,0.1,0,0.1,0.1C61.1,70.3,61.1,70.3,61.1,70.3L61.1,70.3z M61.3,70.8c0,0.3,0.2,0.5,0.5,0.5c0-0.1,0-0.3,0-0.4
					c0-0.1-0.1-0.2-0.2-0.2c0,0,0,0,0,0C61.5,70.8,61.4,70.9,61.3,70.8C61.3,70.9,61.3,70.9,61.3,70.8L61.3,70.8z M61.9,66.7
					c-0.3-0.1-0.4,0-0.4,0.2c0,0.2,0,0.3-0.1,0.5c0.1,0,0.3,0,0.4,0c0.2,0,0.2,0,0.2-0.1c-0.2,0-0.3,0-0.2-0.2
					C61.8,66.9,61.8,66.8,61.9,66.7L61.9,66.7z"/>
				<path class="st1" d="M66,73.6c-0.1,0-0.2,0-0.3,0.1l-0.2,0.2L65.4,74c-0.1,0-0.2,0-0.3,0c0-0.2-0.1-0.4-0.1-0.6
					c0-0.2,0-0.4-0.1-0.7c0.1,0,0.1-0.1,0.2-0.1c0,0,0.1,0,0.1,0c0-0.1-0.1-0.1-0.1-0.2c0-0.1,0-0.2,0-0.2c-0.1,0-0.2,0-0.3,0v-0.3
					c0-0.2,0-0.4,0-0.6l0.1-0.6c0.1,0,0.2-0.1,0.4-0.1c0.1,0,0.2-0.1,0.2-0.3c-0.1,0-0.1,0.1-0.2,0.1c-0.1,0-0.2,0-0.2,0.1
					c0-0.2,0.1-0.3,0.1-0.5c0.1,0.1,0.2,0.1,0.3,0.1v-0.4h-0.2c0.3-0.6,0.7-1.1,1.2-1.4c0.5-0.4,1.1-0.6,1.8-0.8c0,0,0,0.1,0,0.1
					L68,67.6c0,0.1,0,0.3,0,0.4c0,0.1,0.1,0.1,0.2,0.2l0.2,0.1c0.1,0,0.2,0.1,0.2,0.2c-0.2,0-0.3,0.1-0.3,0.3c0.1,0,0.2,0,0.3,0
					c0.1,0,0.1,0,0.1,0.1c0,0.1-0.1,0.3-0.2,0.4c0-0.1,0-0.1,0-0.2c0-0.1,0-0.1-0.1-0.1l-0.1,0.4c0,0.1-0.1,0.3-0.1,0.4
					c0.2-0.1,0.3-0.2,0.4-0.3c0.1-0.1,0.2-0.1,0.5,0c0-0.1,0-0.2-0.1-0.2c-0.1,0-0.1-0.1-0.1-0.2c0.1,0.1,0.2,0.1,0.3,0.1
					c0.1-0.1,0.1-0.1,0.2-0.2c0-0.1,0.1-0.2,0.2-0.2c0.1-0.1,0.2-0.1,0.4,0c0-0.1,0.1-0.3,0.1-0.4c0-0.1,0.1-0.2,0.1-0.2
					c0.2,0.3,0.2,0.6,0.1,0.9c-0.1,0.3-0.4,0.4-0.6,0.4c0,0,0,0,0,0c0.1,0.1,0.2,0.2,0.4,0.2c0.1,0.1,0.2,0.2,0.3,0.3
					c0,0.2-0.1,0.3-0.3,0.4c-0.1,0.1-0.3,0.2-0.4,0.3l-0.5,0.2c-0.1,0.1-0.3,0.2-0.3,0.3c0-0.2,0-0.4-0.1-0.5
					c-0.1-0.2-0.2-0.4-0.2-0.6c0,0.1-0.1,0.2-0.2,0.3c-0.1,0.1-0.2,0.1-0.3,0.1c0,0.2,0,0.4-0.1,0.6c0,0.2,0,0.3-0.1,0.5
					c0,0.1,0,0.3,0.1,0.4c0.1,0.2,0.1,0.3,0.3,0.5c-0.1,0.1-0.2,0.1-0.3,0.1c-0.1,0-0.2-0.1-0.3-0.1C67.3,72,67.2,72,67.1,72
					c-0.2,0-0.3,0-0.5,0c0,0.3,0.1,0.6,0.1,0.8c0,0.3,0,0.5-0.2,0.7v-0.7c-0.2,0.1-0.3,0.1-0.4,0c-0.1-0.1-0.2-0.1-0.4-0.1
					c0,0.1,0.1,0.2,0.1,0.2c0.1,0.1,0.1,0.1,0.2,0.2C66,73.4,66,73.5,66,73.6z M77.8,65.8C77.8,65.8,77.8,65.9,77.8,65.8
					c0.1,0,0.1-0.1,0.1-0.1c0.1,0.5,0.1,1.1,0.1,1.6v0.5c-0.1,0.2-0.1,0.4,0,0.4l0.2,4.7c-0.1,0-0.2,0.1-0.3,0.2
					c-0.1,0.1-0.2,0.1-0.3,0.2c-0.1-0.1-0.1-0.2-0.1-0.3c0-0.1-0.1-0.1-0.3-0.2c0,0.1,0,0.2-0.1,0.3c-0.1,0.1-0.1,0.2-0.1,0.3
					l0.6,0.2c0.2,0.1,0.4,0,0.6-0.1l0.1,2.2c-0.1-0.1-0.1-0.2-0.2-0.3c-0.1-0.2-0.1-0.2-0.2-0.2c0,0.2,0,0.4,0.1,0.6
					c0,0.2,0.1,0.3,0.3,0.3v0.5c0,0.1-0.1,0.3-0.2,0.4L74,77.2c-0.2,0-0.3-0.1-0.2-0.2l-0.3-1.1c-0.2,0.3-0.5,0.5-0.8,0.7
					c-0.3,0.2-0.6,0.4-0.9,0.6c0-0.1,0.1-0.2,0.1-0.3c0.1-0.1,0.1-0.2,0.2-0.3c-0.2,0-0.4-0.1-0.4-0.3c0-0.1-0.1-0.3-0.2-0.4
					c0,0.2,0,0.3-0.1,0.4c-0.1,0.1-0.2,0.2-0.2,0.3c0.3-0.1,0.4-0.1,0.4,0.1c0,0.2,0.1,0.3,0.2,0.4l-0.4,0.1l-0.4,0.1
					c0-0.1,0-0.1-0.1-0.1c-0.2-0.1-0.3-0.2-0.5-0.2c-0.1,0-0.2-0.1-0.2-0.3c0,0.1-0.1,0.1-0.1,0.1c0,0,0,0.1-0.1,0.1
					c0,0-0.1,0.1-0.1,0.1c0.2,0,0.4,0.1,0.6,0.3c-0.1,0-0.3,0-0.4,0h-0.4v-0.1c-0.2,0-0.2,0-0.2,0.1c-0.1,0-0.2,0-0.3,0
					c0-0.1,0-0.2,0-0.2c0-0.1,0-0.3,0-0.4c-0.2-0.1-0.4-0.2-0.7-0.2c-0.2-0.1-0.4-0.2-0.5-0.3c0,0.2-0.1,0.4-0.1,0.5
					c0,0.1,0,0.2,0.1,0.2c-0.1,0-0.2,0.1-0.2,0.2c-0.2-0.1-0.4-0.1-0.6-0.2l0.3-0.3c0.1-0.1,0.2-0.2,0.3-0.3c-0.1,0-0.2-0.1-0.2-0.2
					c0-0.1-0.1-0.2-0.3-0.1c0,0.1,0,0.2-0.1,0.2c-0.1,0-0.2,0-0.2,0l-0.3-0.1c-0.1,0-0.2,0-0.3,0c0,0.1,0,0.2,0.1,0.3
					c0.1,0.1,0.1,0.1,0.1,0.2c-0.5-0.4-1-0.9-1.2-1.5c0.1,0.2,0.2,0.4,0.4,0.5c0.1,0.1,0.3,0.3,0.4,0.3c0-0.1,0.1-0.2,0.2-0.2
					l0.3-0.1c0.1,0,0.2-0.1,0.3-0.2c0.1-0.1,0.2-0.2,0.2-0.4c-0.1,0.1-0.3,0.2-0.5,0.2c-0.2,0-0.4,0-0.6-0.1
					c-0.2-0.1-0.3-0.2-0.5-0.3c-0.1-0.1-0.2-0.2-0.1-0.4c0,0.1,0.1,0.3,0.3,0.3c0.1,0.1,0.3,0.2,0.5,0.2c0.2,0,0.3,0,0.5,0
					c0.2-0.1,0.3-0.2,0.3-0.4c-0.2,0.1-0.5,0.1-0.7-0.1c-0.3-0.1-0.5-0.3-0.6-0.5c0.2,0,0.4,0,0.5-0.1c0.1-0.1,0.3-0.2,0.4-0.3
					l0.3-0.3c0.1-0.1,0.3-0.2,0.5-0.2c0.1,0.1,0.1,0.2,0.2,0.3c0,0.1,0.2,0.2,0.3,0.1c0.1-0.1,0.2-0.3,0.1-0.5
					c0-0.1-0.1-0.3-0.2-0.4c-0.1-0.1-0.1-0.3-0.2-0.4c0-0.2,0-0.3,0.2-0.4c0,0.3,0.1,0.4,0.2,0.5c0.1-0.1,0.1-0.2,0.1-0.3
					c0-0.1-0.1-0.1-0.2-0.2c-0.1-0.1-0.1-0.1-0.2-0.2C68,71.7,68,71.5,68,71.4c0.1,0,0.2,0.1,0.2,0.2s0.1,0.1,0.2-0.1s0.1-0.2,0-0.2
					c0,0-0.1-0.1-0.1-0.1c0,0-0.1,0-0.1,0c0,0,0-0.1,0-0.2s0.1-0.1,0.1-0.3s0-0.3,0-0.4c0,0.2,0,0.4,0.1,0.5
					c0.1,0.2,0.3,0.2,0.4,0.2c0-0.2,0.1-0.3,0.3-0.4c0.2,0,0.4-0.1,0.5-0.1l0.4-0.1c0.1,0,0.1-0.1,0-0.2c0.1,0,0.2,0,0.3,0
					c0,0,0,0.1,0.1,0.1c-0.2,0.2-0.4,0.4-0.5,0.6c-0.1,0.3-0.2,0.7-0.2,1l-0.2-0.1c0,0.1,0.1,0.3,0.2,0.3l0,0c0,1.1,0.5,1.7,1.4,1.8
					c-0.1,0-0.2,0.1-0.3,0.2c-0.1,0.1-0.2,0.1-0.2,0.2c0.2-0.1,0.3-0.2,0.5-0.2c0.2,0,0.3-0.1,0.4-0.2l0,0c0.6,0,1.1-0.2,1.5-0.7
					c0.3-0.3,0.5-0.8,0.5-1.2v-0.3c0.1,0.1,0.3,0.2,0.4,0.2c0.1,0.1,0.3,0.2,0.4,0.2c0-0.1,0-0.2,0.1-0.3s0.1-0.2,0.1-0.3
					c-0.2,0.1-0.4,0.1-0.6,0.1c-0.2-0.1-0.3-0.2-0.4-0.3V71c0.3,0.1,0.5,0.3,0.7,0.5c0-0.2-0.1-0.4-0.2-0.5
					c-0.1-0.1-0.3-0.2-0.5-0.2v-0.2c-0.5-0.4-1.1-0.5-1.7-0.5c-0.2,0-0.4,0-0.6,0.1V70c0.3,0,0.5-0.1,0.5-0.3
					c-0.2-0.1-0.4-0.2-0.6-0.3c-0.2-0.1-0.3-0.2-0.4-0.4c0.1,0,0.2,0,0.2-0.1c0.1,0.1,0.1,0.1,0.1,0.1c0,0,0-0.1,0-0.1
					c0,0,0-0.1,0-0.1c0,0,0.1-0.1,0.2,0s0,0.2,0,0.2c0.1,0,0.1,0,0.2,0c0.1,0,0.2,0,0.3,0c0.1,0,0.2,0.1,0.3,0.1
					c0-0.1-0.1-0.2-0.1-0.4c0-0.1,0.1-0.2,0.2-0.3c-0.2-0.1-0.4-0.2-0.6-0.2c-0.2-0.1-0.4-0.2-0.6-0.3c0.1-0.1,0.3-0.2,0.5-0.2
					c0.2,0,0.4,0,0.6,0c0-0.1,0-0.2,0.2-0.2l0.3-0.1l0.5,0.1l0.5,0.1v-0.6c0-0.3,0-0.6-0.1-0.9c0.1,0,0.1-0.1,0.2-0.2s0-0.2-0.2-0.2
					v0.1c-0.2-0.3-0.5-0.6-0.9-0.8c-0.6-0.2-1.2-0.4-1.8-0.4c-0.1-0.1-0.2-0.1-0.3-0.1c-0.1,0-0.2,0-0.3,0l-0.3,0.1
					c-0.2,0-0.4,0-0.5,0c0,0,0,0.1,0,0.1h-0.4L68,64.9v-0.1h-0.2v0.1l-0.8,0.2l-0.8,0.2c-0.1,0-0.2-0.1-0.2-0.2l-0.1-2.2
					c0.1-0.1,0.2-0.2,0.3-0.2c0.1,0,0.2,0,0.3,0.1s0.2,0.1,0.3,0.1v-0.6l-0.4,0.2c-0.1,0.1-0.3,0.2-0.5,0.2v-0.3
					c0.1-0.1,0.2-0.2,0.3-0.3c0.1-0.1,0.1-0.2,0.2-0.4c-0.1,0-0.2,0-0.2,0c0,0,0,0.1-0.1,0.1c0,0,0,0.1-0.1,0.1c0,0-0.1,0-0.2,0
					v-0.3c0.1-0.1,0.1-0.1,0.2-0.2l0.3-0.1c0.1,0,0.1,0,0.2,0h0.2l-0.2,0.1c-0.1,0.1-0.1,0.2-0.1,0.2c0.3,0,0.4,0,0.5-0.1l0.2-0.4
					h0.3l0.3,0c0,0.1-0.1,0.2-0.2,0.2s-0.1,0.1,0.1,0.2c-0.2,0-0.3,0-0.3,0s-0.1,0.1-0.3,0.1c0,0.2,0,0.4-0.1,0.5
					c0.1,0,0.3,0,0.4-0.1c0.1-0.1,0.1-0.2,0.2-0.2c0-0.1,0.1-0.2,0.2-0.3c0.1-0.1,0.2-0.2,0.3-0.2c-0.1-0.1-0.1-0.2-0.1-0.3l1.1-0.1
					l0.9-0.1c1.6-0.1,3.1,0.1,4.7,0.6c0.1,0,0.1,0.1,0.2,0.1l0.3,0.1l0.3,0.1c-0.2,0-0.3,0.1-0.3,0.3c0.2,0,0.4-0.1,0.6-0.2l0.4,0.3
					c-0.1,0-0.2,0-0.3-0.1c0,0.1,0,0.2-0.1,0.3s-0.1,0.2,0,0.3c0.2,0,0.3-0.1,0.3-0.2c0-0.1,0.1-0.3,0.2-0.3l0.2,0.2
					c0.1,0.1,0.1,0.1,0.2,0.2c-0.1,0-0.1,0-0.2-0.1c0-0.1-0.1-0.1-0.2,0c0,0.2,0,0.3-0.1,0.5c0,0.1,0,0.2,0.2,0.3
					c-0.4,0-0.7,0-1.1,0c-0.4,0-0.8,0-1.2,0.2c0-0.1-0.1-0.3-0.1-0.4c-0.1-0.2-0.1-0.3-0.1-0.5h0.4c-0.1-0.4-0.2-0.6-0.3-0.6
					c-0.1,0-0.2,0.1-0.3,0.4c-0.1-0.2-0.2-0.4,0-0.5s0.2-0.3,0.1-0.5c-0.1-0.1-0.3-0.1-0.4,0c-0.1,0.1-0.3,0.1-0.4,0.2
					c0.1,0.4,0.3,0.8,0.5,1.2c0.2,0.4,0.3,0.9,0.4,1.4c0.1-0.1,0.2-0.1,0.3,0c0.1,0.1,0.2,0.2,0.4,0.3c0.2-0.3,0.5-0.5,0.9-0.6
					c0.3-0.1,0.7-0.1,1-0.1c0-0.1,0.1-0.3,0.2-0.3c0.1-0.1,0.2-0.1,0.4-0.2c0,0.1,0.1,0.2,0.2,0.3l0.2,0.3c-0.2,0-0.3,0.1-0.3,0.3
					c0,0.2,0,0.3,0.2,0.3c-0.3,0-0.6,0.1-0.8,0.3c-0.2,0.2-0.4,0.3-0.6,0.4v-0.6c0.2-0.1,0.4-0.1,0.6-0.1c0.3,0,0.3-0.1,0.2-0.2
					c-0.1,0-0.3,0-0.4,0.1c0,0-0.2,0-0.3,0c-0.2,0.2-0.4,0.3-0.7,0.4c-0.3,0.1-0.5,0.3-0.6,0.5c0.2,0.1,0.3,0.2,0.3,0.3
					c0,0.1,0,0.2,0,0.4c0,0.1,0,0.2,0,0.3c0,0.1,0.2,0.1,0.4,0.1c-0.1,0.2-0.2,0.3-0.1,0.4c0.1,0.1,0.1,0.3,0.1,0.4l1.1,0.1
					c0.4,0,0.7-0.1,0.8-0.3h-0.4c-0.2,0-0.4,0-0.7,0c0-0.3,0-0.5-0.2-0.6l-0.3-0.2c0.1-0.1,0.1-0.3,0.1-0.4c0-0.1,0-0.3,0.1-0.4
					c0,0.2,0,0.3,0.1,0.2c0.1,0,0.2,0,0.3,0c0-0.3,0.2-0.5,0.5-0.6c0.2-0.1,0.4-0.1,0.7,0c-0.1-0.3-0.2-0.7-0.1-1
					c0.2,0.4,0.3,0.8,0.4,1.2c-0.1,0-0.3,0-0.4,0c-0.1,0-0.2,0.2-0.2,0.3c0.1,0,0.3,0.1,0.3,0.3C77.6,65.7,77.7,65.8,77.8,65.8
					L77.8,65.8z M66.4,68.9C66.4,68.9,66.4,69,66.4,68.9L66,69c-0.1,0-0.2,0-0.2,0.1c-0.1,0-0.1,0.1,0,0.1h0.6c0.1,0,0.2,0,0.2-0.1
					S66.5,69,66.4,68.9z M67.7,71.8c0-0.2,0-0.2-0.1-0.3h-0.2c-0.1,0-0.1,0-0.2-0.1c0,0,0-0.2,0-0.4c-0.1,0-0.2,0-0.3,0.1l-0.2,0.1
					c0,0-0.1,0.1-0.2,0.1c-0.1,0-0.2,0-0.3-0.1c-0.1,0.2-0.1,0.3,0,0.3c0,0,0.1,0.1,0,0.2c0,0,0,0,0,0c-0.3-0.1-0.3-0.3-0.3-0.5
					c0.1-0.2,0.2-0.4,0.2-0.7c-0.1,0-0.2,0.1-0.3,0.3c-0.1,0.1-0.1,0.3-0.1,0.5c0,0.2,0,0.4,0,0.6c0,0.2,0,0.4,0,0.5
					c0.1,0,0.1,0,0.2,0l0.2,0.1c0,0,0.1,0,0.1,0.1c0,0,0.1,0,0.1-0.1c-0.1-0.1-0.2-0.1-0.3-0.1c-0.1,0-0.2-0.1-0.1-0.3
					C66.6,71.8,67.1,71.7,67.7,71.8z M66.1,64.5c0-0.1,0.1-0.3,0.3-0.3c0.2-0.1,0.3-0.2,0.5-0.2c0.1,0,0.3-0.1,0.4-0.2
					c0.1-0.1,0.1-0.2,0-0.3c-0.1,0.1-0.1,0.2-0.2,0.3c-0.1,0.1-0.2,0.1-0.2,0c-0.1,0.1-0.2,0.1-0.3,0.1c-0.1,0-0.2,0.1-0.3,0.2
					c-0.1,0-0.1,0.1-0.2,0.2C66,64.3,66,64.4,66.1,64.5z M66.1,63.5c0,0.1,0,0.2,0.1,0.2c0,0.1,0.1,0.1,0.1,0.2
					c0-0.1,0.1-0.1,0.1-0.2c0.1-0.1,0.1-0.1,0.1-0.2L66.1,63.5z M66.5,70.8c0,0.1,0,0.2,0,0.2c0,0,0.1,0.1,0.2,0.1
					c0.1,0,0.1,0,0.2-0.1c0.1,0,0.1-0.1,0-0.2H66.5z M67.4,69c0-0.1,0-0.2,0-0.2c-0.1,0-0.1-0.1-0.2-0.1c-0.1,0-0.2,0-0.2,0.1
					c-0.1,0-0.1,0.1-0.1,0.1c0.2,0,0.3,0,0.3,0.1S67.2,69.1,67.4,69z M67.5,68c0,0.2,0,0.3-0.1,0.3c-0.1,0-0.2,0.1-0.2,0.2
					c0.2,0,0.4,0.1,0.7,0.1c0.2,0.1,0.5-0.1,0.5-0.3c-0.2,0-0.3,0-0.5-0.1C67.8,68.2,67.6,68.1,67.5,68z M67.4,69.4
					c-0.1,0.1,0,0.3,0.1,0.3c0.1,0.1,0.2,0.1,0.2-0.1c-0.1,0-0.1-0.1-0.1-0.1C67.5,69.5,67.5,69.4,67.4,69.4L67.4,69.4z M67.4,70.1
					c0.2,0,0.4-0.1,0.5-0.2C67.7,69.9,67.5,70,67.4,70.1L67.4,70.1z M68.2,62.8c-0.1-0.2-0.1-0.3,0.1-0.3c0.1,0,0.2-0.1,0.2-0.2
					c-0.1-0.1-0.2-0.1-0.3-0.1c-0.1,0-0.2,0-0.3,0c-0.1,0-0.2,0.1-0.2,0.2c0,0.1,0,0.1,0.1,0.2c0-0.1,0.1-0.2,0.2-0.1
					c0,0.1,0,0.2,0.1,0.2L68.2,62.8z M68.2,75c0.2,0,0.4,0.1,0.6,0.1c0.2,0,0.3-0.1,0.4-0.4h-1c0,0.1,0,0.3-0.1,0.4
					c-0.1,0.1-0.2,0.2-0.2,0.3c0.2,0,0.4,0,0.5-0.1C68.4,75.2,68.4,75.1,68.2,75L68.2,75z M68,76.2c0,0,0.1-0.1,0.1-0.1
					c0-0.1,0-0.1,0.1-0.2c0-0.1,0-0.1,0-0.2c0-0.1-0.1-0.1-0.1-0.1c-0.1,0.1-0.1,0.2-0.1,0.3C67.8,76,67.9,76.1,68,76.2z M68.3,73.8
					c0,0.1,0,0.3,0,0.4c0,0.2,0,0.2,0.1,0.2s0.1-0.1,0.2-0.1C68.8,74,68.6,73.8,68.3,73.8L68.3,73.8z M68.4,64.7
					c0.1,0,0.1-0.1,0.1-0.2c0-0.1,0-0.2,0-0.2c0-0.1,0-0.2,0-0.2c0-0.1,0.1-0.1,0.2-0.1c-0.1-0.1-0.1-0.3-0.2-0.4
					c0-0.1-0.1-0.3-0.3-0.3c0.1,0.1,0.1,0.3,0.1,0.4c0,0.1,0,0.3-0.1,0.4c0,0.1-0.1,0.2-0.1,0.4C68.3,64.5,68.4,64.6,68.4,64.7
					L68.4,64.7z M68.6,67.6c0.1,0,0.2,0,0.2,0c0,0,0.1,0.1,0.2,0.1c0,0,0,0.1-0.1,0.1c0,0-0.1,0.1-0.1,0.2h-0.3L68.6,67.6z
					 M68.7,77.4c0.1,0,0.2,0.1,0.3,0.2h-0.2h-0.2C68.7,77.5,68.7,77.5,68.7,77.4L68.7,77.4z M68.7,68.2c0.1,0,0.1,0.1,0.2,0.2
					c0,0.1,0.1,0.1,0.2,0c0,0.2-0.1,0.2-0.2,0.1S68.7,68.4,68.7,68.2L68.7,68.2z M70.9,67.2c-0.1,0-0.2,0-0.3,0.1
					c-0.1,0.1-0.2,0.1-0.3,0.1c-0.1-0.1-0.2-0.2-0.3-0.2c-0.1,0-0.2,0-0.2,0.1c-0.1,0.1-0.2,0.1-0.2,0.2c-0.1,0.1-0.2,0.1-0.3,0.1
					c0-0.2,0-0.3,0.1-0.5h0.4l0.4-0.1c0.2,0,0.4,0,0.6,0C70.9,67.1,70.9,67.2,70.9,67.2L70.9,67.2z M69.4,67.9c0.1,0,0.2,0,0.2,0
					c0.1,0.1,0.1,0.3,0,0.3c0,0-0.1,0-0.2,0V67.9z M70.1,75.6c0-0.2-0.1-0.5-0.2-0.7c0-0.1,0-0.1,0-0.2c0-0.1,0.1-0.2,0.2-0.3
					c-0.2,0-0.3,0-0.3,0s-0.1,0.1-0.3,0c0,0.2,0,0.5,0.2,0.7C69.8,75.4,70,75.5,70.1,75.6L70.1,75.6z M70.2,69.6
					c0.1,0,0.3,0.1,0.4,0.1c0-0.1,0-0.2,0-0.2c0-0.1,0-0.1,0.1-0.2c0,0.1,0.1,0.3,0.1,0.4c0,0.1,0.1,0.3,0.1,0.4c0,0-0.1,0-0.1,0
					c0-0.1-0.1-0.2-0.1-0.2c0,0.1-0.1,0.1-0.2,0C70.3,69.9,70.3,69.8,70.2,69.6L70.2,69.6z M71.5,69.9c0.1,0,0.2,0,0.2,0.1
					s0.1,0.1,0.2,0c0-0.2-0.1-0.3-0.2-0.4c0,0.1,0,0.1-0.1,0.2C71.5,69.8,71.5,69.8,71.5,69.9L71.5,69.9z M72.2,76.2
					c0-0.1,0-0.2,0.1-0.3c0-0.1,0-0.2-0.1-0.3c0,0.1-0.1,0.1-0.3,0.1C72,76,72.1,76.2,72.2,76.2L72.2,76.2z M72.5,61.7
					c0,0.1,0,0.3,0.1,0.3c0.1,0.1,0.2,0.1,0.3,0.2l-0.1-0.4C72.8,61.8,72.7,61.7,72.5,61.7L72.5,61.7z M72.7,64.4
					c-0.1,0-0.1,0.1-0.1,0.2c0,0.1,0,0.1,0.1,0.2c0,0.1,0.1,0.1,0.2,0.1c0.1,0,0.1,0,0.2-0.2c-0.1,0-0.2-0.1-0.2-0.2
					S72.8,64.4,72.7,64.4L72.7,64.4z M73.3,70.3c0.1,0.1,0.2,0.1,0.3,0.2c0.1,0,0.1,0,0.2,0c0.1,0,0.1,0,0.2,0l0.4-0.1
					c0-0.1,0-0.3,0.1-0.4c0-0.1,0.1-0.2,0.1-0.3c0-0.1,0-0.2,0-0.2c0-0.1-0.1-0.2-0.1-0.4c0.2,0,0.3,0,0.3,0.1s0.1,0.1,0.3,0.1
					c0-0.2,0-0.3-0.1-0.3c-0.1,0-0.1,0-0.2,0s-0.1,0-0.2,0c0,0,0-0.1,0-0.3h-0.4C74,68.7,74,68.9,74,69c0,0.1,0,0.2,0.1,0.3
					c0,0.1,0,0.2,0,0.3c0,0.1-0.1,0.2-0.2,0.3c0-0.1-0.1-0.2-0.2-0.1s-0.2,0-0.3-0.1C73.4,69.9,73.4,70.1,73.3,70.3L73.3,70.3z
					 M74.1,68.4c-0.2,0-0.3,0-0.4-0.1c-0.1-0.1-0.2-0.2-0.3-0.2c0.1,0.3,0.1,0.5,0.1,0.8c0,0.2,0,0.3,0.1,0.5c0-0.1,0.1-0.2,0.2-0.1
					c0,0,0,0,0,0c0-0.2,0-0.4,0-0.5L74.1,68.4z M73.5,64.2c0,0.1,0,0.2,0,0.2l-0.1,0.2c0.2,0,0.4-0.1,0.5-0.2
					c-0.1,0-0.1-0.1-0.2-0.1C73.8,64.2,73.7,64.2,73.5,64.2L73.5,64.2z M73.8,73.9c0,0.1,0,0.3,0,0.4c0,0.1,0.1,0.2,0.2,0.2l0.3-0.5
					c0.1-0.1,0-0.2-0.3-0.3C74,73.9,74,73.9,73.8,73.9L73.8,73.9z M74.1,65.6c-0.1-0.1-0.2-0.1-0.2-0.1c0,0-0.1,0.1-0.1,0.1
					c0,0.1,0,0.1,0.1,0.1C74,65.8,74.1,65.7,74.1,65.6L74.1,65.6z M75.4,76.5c0.3-0.2,0.5-0.4,0.7-0.6c0.2-0.2,0.3-0.5,0.2-0.8
					c-0.1,0-0.3,0-0.3,0.1c-0.1,0.1-0.2,0.1-0.3,0.2c0.1,0.2,0.1,0.3,0.1,0.5c0,0.2-0.1,0.4-0.2,0.4c0-0.1,0-0.2,0-0.2
					c0,0-0.1-0.1-0.2-0.1h-0.2c-0.1,0-0.1,0-0.1-0.1c0,0.3-0.1,0.4-0.3,0.3c-0.1-0.1-0.3-0.2-0.5-0.2c0,0.1,0,0.2,0,0.2l-0.1,0.1
					L74,76.4c0,0,0,0.1,0,0.2c0.2,0,0.5,0,0.7-0.1C75,76.4,75.2,76.4,75.4,76.5z M74.1,64.7h0.2v-0.2h-0.2V64.7z M75.2,67.2
					c0-0.2,0-0.3-0.1-0.5c-0.1-0.1-0.2-0.2-0.3-0.3c-0.1-0.1-0.2-0.1-0.4-0.1c-0.1,0-0.2,0-0.3,0.1c0.2,0,0.5,0.1,0.6,0.3
					C74.9,66.9,75.1,67.1,75.2,67.2z M74.2,70.8c-0.1,0.4,0.1,0.7,0.4,0.9c0.1-0.2,0.1-0.4,0-0.6C74.6,70.9,74.4,70.8,74.2,70.8
					L74.2,70.8z M74.4,72.7c0,0.1-0.1,0.2-0.1,0.4c0,0.1,0,0.2-0.1,0.3c0,0.1,0,0.1,0.1,0.2c0.1,0,0.2,0,0.3-0.1
					c-0.1,0-0.1,0-0.1-0.1c0-0.1,0-0.2,0-0.3c0-0.1,0-0.2,0-0.3C74.6,72.8,74.5,72.7,74.4,72.7L74.4,72.7z M74.3,63.6
					c0-0.1-0.1-0.2,0-0.2c0,0,0.1,0,0.1,0h0.2c0.1,0,0.1,0,0.1-0.1c0.3,0,0.3,0.1,0.2,0.3C74.8,63.6,74.5,63.7,74.3,63.6L74.3,63.6z
					 M74.5,74.6c0,0.2,0,0.3,0,0.5c0,0.2,0,0.3,0.1,0.3c0-0.2,0.1-0.3,0.1-0.5C74.8,74.8,74.7,74.7,74.5,74.6L74.5,74.6z M74.6,68.5
					c0.1,0,0.2-0.1,0.3-0.2c0-0.1,0-0.1,0-0.2c-0.1-0.1-0.1,0-0.2,0C74.7,68.2,74.6,68.4,74.6,68.5L74.6,68.5z M74.9,70.1
					c0,0,0.1,0,0.1-0.1c0-0.1,0-0.2,0-0.3c0-0.1,0-0.2-0.1-0.2c0-0.1-0.1-0.1-0.2,0c0,0.1,0,0.1-0.1,0.2c0,0.1-0.1,0.2-0.1,0.2
					c0,0.1,0,0.1,0.1,0.2C74.7,70.2,74.8,70.2,74.9,70.1L74.9,70.1z M75.1,75c0,0.1,0,0.1,0,0.2c0,0.1-0.1,0.1-0.1,0.1
					c0,0-0.1,0.1-0.1,0.1c0,0,0,0.1,0.1,0.1c0.1-0.2,0.2-0.2,0.2-0.1c0.1,0.1,0.2,0.1,0.3,0.1C75.5,75.1,75.4,74.9,75.1,75z
					 M75.3,65.1c0.1-0.1,0.1-0.3,0.1-0.5c0.2,0,0.3,0.2,0.3,0.5H75.3z M76.2,70c0,0.2-0.1,0.3-0.2,0.4l-0.3,0.4
					c-0.1,0.1-0.2,0.2-0.2,0.4c0,0.1,0,0.2,0.1,0.3c0-0.2,0.1-0.3,0.4-0.2c-0.1-0.2,0-0.5,0.2-0.7c0.1-0.1,0.2-0.1,0.2-0.2
					c0.1-0.1,0.1-0.2,0.1-0.3c-0.1,0-0.1,0-0.2-0.1C76.4,70,76.3,70,76.2,70z M75.5,63.4v-0.2h0.2v0.2H75.5z M76.5,68.7
					c0.1-0.2,0.1-0.4,0.1-0.5c0-0.2-0.1-0.4-0.1-0.5c-0.1-0.2-0.2-0.3-0.3-0.4c-0.1-0.1-0.2-0.1-0.3,0c0.1,0.2,0.1,0.4,0.3,0.6
					l0.4,0.6c-0.1,0-0.1,0-0.1,0.1C76.3,68.7,76.4,68.7,76.5,68.7L76.5,68.7z M76.3,72.7c-0.1,0.1-0.2,0-0.3-0.1c0,0,0,0,0,0
					c-0.1-0.1-0.2-0.1-0.2,0.1l0.3,0.1C76.2,72.9,76.3,72.8,76.3,72.7L76.3,72.7z M76.1,73.6c0.1,0,0.3,0,0.4,0c0.2,0,0.2,0,0.2-0.1
					c-0.1,0-0.3,0-0.4,0C76.1,73.4,76.1,73.4,76.1,73.6L76.1,73.6z M76.8,74.8c0-0.1,0-0.2,0.1-0.2c0-0.1,0-0.1-0.1-0.2
					c0,0.1,0,0.2-0.1,0.2C76.6,74.7,76.6,74.8,76.8,74.8L76.8,74.8z M77.2,69.4h-0.2v0.3h0.2V69.4z M77.5,73.6
					c-0.1,0-0.1,0.1-0.2,0.1c-0.1,0.1-0.1,0.2-0.1,0.2c0,0.1,0,0.2,0,0.2c0,0.1,0.1,0.1,0.2,0.1c0-0.2,0-0.3,0.1-0.3
					c0.1,0,0.2,0,0.2,0c0.1,0,0.2,0,0.2,0c0.1,0,0.1-0.1,0.2-0.2c-0.1,0.1-0.3,0.1-0.4,0L77.5,73.6z M77.7,72.5
					c-0.1,0-0.1,0.1-0.1,0.2c0,0.1,0.1,0.1,0.1,0.1c0.1,0,0.1,0,0.2,0c0.1,0,0.1-0.1,0.1-0.1c-0.1,0-0.1,0-0.2-0.1
					C77.8,72.5,77.7,72.5,77.7,72.5L77.7,72.5z M78,71.6c0-0.1,0-0.2,0-0.2l0.1-0.3c0-0.1,0-0.1,0-0.2c0,0-0.1-0.1-0.2-0.1
					c0,0.2,0,0.3,0,0.5C77.9,71.5,77.9,71.6,78,71.6z"/>
			</g>
		</g>
	</g>
</g>
</svg>
