<?xml version="1.0" encoding="utf-8"?>
<!-- Generator: Adobe Illustrator 21.0.0, SVG Export Plug-In . SVG Version: 6.00 Build 0)  -->
<svg version="1.1" id="Layer_1" xmlns="http://www.w3.org/2000/svg" xmlns:xlink="http://www.w3.org/1999/xlink" x="0px" y="0px"
	 viewBox="0 0 16 16" style="enable-background:new 0 0 16 16;" xml:space="preserve">
<style type="text/css">
	.st0{fill:#EA4647;}
</style>
<title>M Media Logo</title>
<g id="b39de389-a7b8-4fea-bf2a-08118139ae3d">
	<g id="e5627d46-71ce-4e60-8295-4311cfc92d3f">
		<g>
			<g>
				<path class="st0" d="M2.7,3l0.2,10.3l3.2-0.1l0,0L5.9,7.6L5.8,3C5.7,2.9,5.6,2.9,5.5,2.9L2.7,3z"/>
				<path class="st0" d="M12.4,13c0.2,0,0.5-0.1,0.6-0.3l0,0c0.2-0.2,0.3-0.4,0.3-0.7l-0.2-8.5c0-0.2-0.1-0.5-0.3-0.6l0,0
					c-0.2-0.2-0.4-0.3-0.7-0.3l-1.9,0C10,2.8,9.7,3,9.6,3.2L8.4,5.6C8.3,5.8,8.3,5.8,8.1,5.8H8c-0.1,0-0.2-0.1-0.3-0.2L6.4,3.3
					C6.3,3.2,6.2,3,6.1,3l0.1,4.7l0.9,1.5c0.1,0.3,0.4,0.5,0.8,0.4l0.6,0c0.3,0,0.6-0.2,0.7-0.5L10,7.5l0.1,5.5"/>
				<polygon class="st0" points="13.3,13 13.3,13 13.3,13 				"/>
			</g>
		</g>
	</g>
</g>
</svg>
